<svg width="60" height="60" viewBox="0 0 60 60" fill="none" xmlns="http://www.w3.org/2000/svg"><path fill-rule="evenodd" clip-rule="evenodd" d="M60 30C60 31.3807 58.8807 32.5 57.5 32.5L52.5 32.5C51.1193 32.5 50 31.3807 50 30C50 28.6193 51.1193 27.5 52.5 27.5L57.5 27.5C58.8807 27.5 60 28.6193 60 30ZM51.2134 51.2132C50.2371 52.1895 48.6542 52.1895 47.6779 51.2132L44.1422 47.6776C43.1659 46.7013 43.1659 45.1183 44.1422 44.142C45.1185 43.1657 46.7015 43.1657 47.6778 44.142L51.2134 47.6777C52.1897 48.654 52.1897 50.2369 51.2134 51.2132ZM51.2132 8.78679C52.1895 9.7631 52.1895 11.346 51.2132 12.3223L47.6776 15.8579C46.7013 16.8343 45.1184 16.8343 44.1421 15.8579C43.1657 14.8816 43.1657 13.2987 44.1421 12.3224L47.6777 8.78679C48.654 7.81048 50.2369 7.81048 51.2132 8.78679ZM30 -1.31134e-06C31.3807 -1.25099e-06 32.5 1.11929 32.5 2.5L32.5 8.75C32.5 10.1307 31.3807 11.25 30 11.25C28.6193 11.25 27.5 10.1307 27.5 8.75L27.5 2.5C27.5 1.11929 28.6193 -1.37169e-06 30 -1.31134e-06ZM32.5 47.5L32.5 57.5C32.5 58.8807 31.3807 60 30 60C28.6193 60 27.5 58.8807 27.5 57.5L27.5 47.5C27.5 46.1193 28.6193 45 30 45C31.3807 45 32.5 46.1193 32.5 47.5ZM19.3933 40.6067C20.3696 41.583 20.3696 43.1659 19.3933 44.1422L12.3223 51.2132C11.346 52.1895 9.7631 52.1895 8.78679 51.2132C7.81048 50.2369 7.81048 48.654 8.78679 47.6777L15.8578 40.6067C16.8341 39.6304 18.417 39.6304 19.3933 40.6067ZM17.6259 17.6253C16.6496 18.6016 15.0667 18.6016 14.0904 17.6253L8.78729 12.3222C7.81098 11.3459 7.81098 9.76301 8.78729 8.7867C9.7636 7.81039 11.3465 7.81039 12.3228 8.7867L17.6259 14.0898C18.6022 15.0661 18.6022 16.649 17.6259 17.6253ZM13.75 30C13.75 31.3807 12.6307 32.5 11.25 32.5L2.5 32.5C1.11929 32.5 -1.37169e-06 31.3807 -1.31134e-06 30C-1.25099e-06 28.6193 1.11929 27.5 2.5 27.5L11.25 27.5C12.6307 27.5 13.75 28.6193 13.75 30Z" fill="#38332F" fill-opacity="0.8"/></svg>