<svg width="24" height="24" viewBox="0 0 24 24" fill="none" xmlns="http://www.w3.org/2000/svg"><path fill-rule="evenodd" clip-rule="evenodd" d="M19 12C19 11.7348 18.8946 11.4804 18.7071 11.2929L12.7071 5.29289C12.3166 4.90237 11.6834 4.90237 11.2929 5.29289C10.9024 5.68342 10.9024 6.31658 11.2929 6.70711L15.5858 11L6 11C5.44772 11 5 11.4477 5 12C5 12.5523 5.44772 13 6 13L15.5858 13L11.2929 17.2929C10.9024 17.6834 10.9024 18.3166 11.2929 18.7071C11.6834 19.0976 12.3166 19.0976 12.7071 18.7071L18.7071 12.7071C18.8946 12.5196 19 12.2652 19 12Z" fill="#FB7339"/></svg>