<svg width="61" height="60" viewBox="0 0 61 60" fill="none" xmlns="http://www.w3.org/2000/svg"><path d="M33 45C33 46.3807 31.8807 47.5 30.5 47.5C29.1193 47.5 28 46.3807 28 45C28 43.6193 29.1193 42.5 30.5 42.5C31.8807 42.5 33 43.6193 33 45Z" fill="#C23D3D"/><path fill-rule="evenodd" clip-rule="evenodd" d="M30.5 22.5C31.8807 22.5 33 23.6193 33 25V37.5C33 38.8807 31.8807 40 30.5 40C29.1193 40 28 38.8807 28 37.5V25C28 23.6193 29.1193 22.5 30.5 22.5Z" fill="#C23D3D"/><path fill-rule="evenodd" clip-rule="evenodd" d="M30.5 2.5C31.4117 2.5 32.2512 2.99633 32.6905 3.7952L60.1905 53.7952C60.6165 54.5697 60.6018 55.5115 60.152 56.2724C59.7021 57.0333 58.8839 57.5 58 57.5H3C2.1161 57.5 1.2979 57.0333 0.848025 56.2724C0.398155 55.5115 0.383492 54.5697 0.80946 53.7952L28.3095 3.7952C28.7488 2.99633 29.5883 2.5 30.5 2.5ZM7.22818 52.5H53.7718L30.5 10.1876L7.22818 52.5Z" fill="#C23D3D"/></svg>