<svg width="38" height="38" viewBox="0 0 38 38" fill="none" xmlns="http://www.w3.org/2000/svg"><path d="M27.4591 13.7438C27.4591 18.8145 23.3181 23.8433 18.2569 27.0568C13.1957 23.8433 9.05469 18.8145 9.05469 13.7438C9.05469 8.67312 13.1747 4.5625 18.2569 4.5625C23.3391 4.5625 27.4591 8.67312 27.4591 13.7438Z" fill="#FB7339"/><circle cx="18.2384" cy="13.6838" r="4.94" fill="#FB7339" stroke="white" stroke-width="3.8"/><path d="M31.3995 21.8984H25.7759L23.731 24.4546L31.9107 22.9209L31.3995 21.8984Z" fill="#DCDBD9"/><path d="M32.4219 24.4546L22.1973 26.4995L20.1523 29.0557L28.8433 34.168H36.5118L32.4219 24.4546Z" fill="#DCDBD9"/><path d="M10.9512 25.9893L5.32766 22.9219L3.28273 27.523L10.9512 25.9893Z" fill="#DCDBD9"/><path d="M2.7715 29.0567L12.9962 27.523L24.2433 33.6578H0.726562L2.7715 29.0567Z" fill="#DCDBD9"/><path d="M10.4409 21.8984H5.83984L13.5083 25.9883H14.5308L10.4409 21.8984Z" fill="#DCDBD9"/></svg>