<svg width="28" height="28" viewBox="0 0 28 28" fill="none" xmlns="http://www.w3.org/2000/svg"><path fill-rule="evenodd" clip-rule="evenodd" d="M23.178 7.67804L22.824 7.32404C22.6365 7.13657 22.3822 7.03125 22.117 7.03125C21.8519 7.03125 21.5976 7.13657 21.41 7.32404L14.7875 13.9466L16.5787 15.6914L23.178 9.09204C23.3655 8.90451 23.4708 8.6502 23.4708 8.38504C23.4708 8.11987 23.3655 7.86556 23.178 7.67804ZM14.767 17.5031L12.9758 15.7583L11.708 17.026C11.5205 17.2135 11.2662 17.3188 11.001 17.3188C10.7359 17.3188 10.4816 17.2135 10.294 17.026L7.09204 13.824C6.90451 13.6366 6.6502 13.5312 6.38504 13.5312C6.11987 13.5312 5.86556 13.6366 5.67804 13.824L5.32404 14.178C5.13657 14.3656 5.03125 14.6199 5.03125 14.885C5.03125 15.1502 5.13657 15.4045 5.32404 15.592L10.294 20.562C10.4816 20.7495 10.7359 20.8548 11.001 20.8548C11.2662 20.8548 11.5205 20.7495 11.708 20.562L14.767 17.5031Z" fill="#FB7339"/></svg>