<svg viewBox="0 0 1920 1080" version="1.0" preserveAspectRatio="xMidYMid slice" id="floor--svg" xmlns="http://www.w3.org/2000/svg"><polygon data-type="flat"  data-build="1" data-section="1" data-floor="1"  data-id="89" class="s3d-svg__build js-s3d-svg__build" points="1460.5,524,1256.5,527,1257.5,544.5,1181.5,546,1186,561.5,1186,564.5,1181.5,564.5,1207.5,667,1494,666.5,1491,652,1507,653,1485,616,1490.5,601,1503,601,1504,596"></polygon><polygon data-type="flat"  data-build="1" data-section="1" data-floor="1"  data-id="90" class="s3d-svg__build js-s3d-svg__build" points="895,551,965.5,548.5,965.5,529,1169.5,528,1171,531.5,1176.5,531.5,1186,561.5,1186,564.5,1181.5,564.5,1207.5,667,890.5,671"></polygon><polygon data-type="flat"  data-build="1" data-section="1" data-floor="1"  data-id="91" class="s3d-svg__build js-s3d-svg__build" points="499.5,558,537.5,557,548.5,534,755,530.5,755.5,537,782,537,783,552.5,763.5,675.5,437.5,677.5"></polygon><polygon data-type="flat"  data-build="1" data-section="1" data-floor="1"  data-id="92" class="s3d-svg__build js-s3d-svg__build" points="437.5,677.5,499.5,558,496.5,540.5,458.5,541.5,457.5,535,246,537,227,563.5,204.5,564,107,678.5"></polygon><polygon data-type="flat"  data-build="1" data-section="1" data-floor="1"  data-id="82" class="s3d-svg__build js-s3d-svg__build" points="1491.5,521.5,1381,404,1448,401.5,1452.5,382.5,1442,373,1444,371,1484,366,1533.5,360.5,1636.5,444,1636,448.5,1628.5,449,1659,475.5,1560.5,476.5,1559.5,481,1566,489,1565.5,496,1537,496.5,1494,513"></polygon><polygon data-type="flat"  data-build="1" data-section="1" data-floor="1"  data-id="83" class="s3d-svg__build js-s3d-svg__build" points="1146.5,522,1123,416,1191.5,417,1192.5,414,1185.5,392,1362,391,1391.5,445,1391.5,448,1426,493.5,1425.5,503.5,1423.5,512.5,1410,518,1335.5,521"></polygon><polygon data-type="flat"  data-build="1" data-section="1" data-floor="1"  data-id="84" class="s3d-svg__build js-s3d-svg__build" points="865.5,412.5,856,525.5,1146.5,522,1123,416,1099,416,1092.5,394,918.5,395.5,918,413.5"></polygon><polygon data-type="flat"  data-build="1" data-section="1" data-floor="1"  data-id="85" class="s3d-svg__build js-s3d-svg__build" points="856,525.5,667.5,529,695,410.5,729.5,411,745.5,352,839,351,840.5,357,834,412.5,865.5,412.5"></polygon><polygon data-type="flat"  data-build="1" data-section="1" data-floor="1"  data-id="86" class="s3d-svg__build js-s3d-svg__build" points="667.5,529,541,529,551,502.5,480,504,485,496,482,486,475,486,475,483,489,457.5,499,456.5,524,408,550,408.5,574.5,362,673.5,362.5,673,365.5,665,388,667.5,409.5,695,410.5"></polygon><polygon data-type="flat"  data-build="1" data-section="1" data-floor="1"  data-id="87" class="s3d-svg__build js-s3d-svg__build" points="441,535,457,504.5,480,504,485,496,482,486,475,486,475,483,489,457.5,499,456.5,524,408,437,406.5,434.5,399,443.5,383.5,442.5,381,342,382.5,259,488,260,491.5,221,537.5"></polygon><polygon data-type="flat"  data-build="1" data-section="1" data-floor="1"  data-id="81" class="s3d-svg__build js-s3d-svg__build" points="1318.5,391.5,1451.5,390.5,1452.5,382.5,1442,373,1444,371,1484,366,1521.5,362.5,1495,339,1501,338.5,1501.5,336,1468,296.5,1318,299,1318,302.5,1323.5,310,1322,324.5,1289.5,325"></polygon><polygon data-type="flat"  data-build="1" data-section="1" data-floor="1"  data-id="80" class="s3d-svg__build js-s3d-svg__build" points="1289.5,325,1275.5,298,1123,299.5,1122.5,303.5,1130.5,325.5,1071.5,326,1092.5,394,1318.5,391.5"></polygon><polygon data-type="flat"  data-build="1" data-section="1" data-floor="1"  data-id="79" class="s3d-svg__build js-s3d-svg__build" points="1092.5,394,866,396.5,871,328,909,327.5,910.5,301,1065,301.5,1071.5,326"></polygon><polygon data-type="flat"  data-build="1" data-section="1" data-floor="1"  data-id="88" class="s3d-svg__build js-s3d-svg__build" points="1560.5,476.5,1675.0546875,476,1692.0546875,499,1695.0546875,498.5,1855.5546875,637,1849.5546875,660,1841.5546875,675,1682.0546875,677.5,1590.0546875,678.5,1491.5,521.5,1494,513,1537,496.5,1565.5,496"></polygon></svg>