<svg viewBox="0 0 1920 1080" version="1.0" preserveAspectRatio="xMidYMid slice" id="floor--svg" xmlns="http://www.w3.org/2000/svg"><polygon data-type="flat"  data-build="1" data-section="1" data-floor="1"  data-id="88" class="s3d-svg__build js-s3d-svg__build" points="973.33333333333,134,961,76,973.66666666667,76.666666666667,973.33333333333,59,1095.6666666667,55.333333333333,1107,81,1106,83.666666666667,1102.6666666667,83.333333333333,1101.6666666667,102.66666666667,1104.6666666667,102.66666666667,1108,111.33333333333,1043,113.66666666667,1042.3333333333,133.33333333333"></polygon><polygon data-type="flat"  data-build="1" data-section="1" data-floor="1"  data-id="89" class="s3d-svg__build js-s3d-svg__build" points="1024,217,1071,216.66666666667,1070.3333333333,193.66666666667,1169.6666666667,191.66666666667,1141,132,1131.3333333333,132,1120.6666666667,112,1043,113.66666666667,1043.6666666667,135.33333333333,1010,136.33333333333,1013,151.33333333333,1010.3333333333,153.33333333333,1008.6666666667,157,1009,160.66666666667"></polygon><polygon data-type="flat"  data-build="1" data-section="1" data-floor="1"  data-id="90" class="s3d-svg__build js-s3d-svg__build" points="1048.3333333333,312,1219,304.66666666667,1169.6666666667,191.66666666667,1070.3333333333,193.66666666667,1071,216.66666666667,1024,217"></polygon><polygon data-type="flat"  data-build="1" data-section="1" data-floor="1"  data-id="91" class="s3d-svg__build js-s3d-svg__build" points="1101,513.66666666667,1312,502.33333333333,1219,304.66666666667,1048.3333333333,312"></polygon><polygon data-type="flat"  data-build="1" data-section="1" data-floor="1"  data-id="92" class="s3d-svg__build js-s3d-svg__build" points="1158.6666666667,731.66666666667,1408.3333333333,714,1312,502.33333333333,1101,513.66666666667"></polygon><polygon data-type="flat"  data-build="1" data-section="1" data-floor="1"  data-id="82" class="s3d-svg__build js-s3d-svg__build" points="804.66666666667,135.33333333333,804.66666666667,88.666666666667,815,88,813.66666666667,72,935,62,945.66666666667,76,961,76,973.33333333333,134,943,135,940.66666666667,121,860.33333333333,124,861,135"></polygon><polygon data-type="flat"  data-build="1" data-section="1" data-floor="1"  data-id="83" class="s3d-svg__build js-s3d-svg__build" points="836.33333333333,217.33333333333,837,151.66666666667,860.66666666667,150,860.33333333333,124,940.66666666667,121,944,142.33333333333,974,142.33333333333,987.66666666667,210"></polygon><polygon data-type="flat"  data-build="1" data-section="1" data-floor="1"  data-id="84" class="s3d-svg__build js-s3d-svg__build" points="836.33333333333,217.33333333333,836.66666666667,333.33333333333,1010.3333333333,326,987.66666666667,210"></polygon><polygon data-type="flat"  data-build="1" data-section="1" data-floor="1"  data-id="85" class="s3d-svg__build js-s3d-svg__build" points="645.66666666667,358.66666666667,758.33333333333,349.66666666667,758.33333333333,337,1010.3333333333,326,1030.3333333333,429.66666666667,981.66666666667,430.66666666667,981,428.66666666667,775,439,775,440.66666666667,689,443"></polygon><polygon data-type="flat"  data-build="1" data-section="1" data-floor="1"  data-id="86" class="s3d-svg__build js-s3d-svg__build" points="1009.6666666667,606.33333333333,739.66666666667,622,709.66666666667,497,689,443,775,440.66666666667,775,439,981,428.66666666667,981.66666666667,430.66666666667,1030.3333333333,429.66666666667,1053.6666666667,547,999.66666666667,548.33333333333"></polygon><polygon data-type="flat"  data-build="1" data-section="1" data-floor="1"  data-id="87" class="s3d-svg__build js-s3d-svg__build" points="739.66666666667,622,1097.6666666667,601.33333333333,1140.3333333333,789.33333333333,809,807"></polygon><polygon data-type="flat"  data-build="1" data-section="1" data-floor="1"  data-id="81" class="s3d-svg__build js-s3d-svg__build" points="655,157.66666666667,670.66666666667,95.666666666667,690.33333333333,94.333333333333,695,77.333333333333,771,76.333333333333,771,90.666666666667,804.66666666667,88.666666666667,804.33333333333,152.66666666667,763,153.33333333333,764,138,678.33333333333,140,674.66666666667,157"></polygon><polygon data-type="flat"  data-build="1" data-section="1" data-floor="1"  data-id="80" class="s3d-svg__build js-s3d-svg__build" points="636.33333333333,231.66666666667,654.66666666667,232,656.66666666667,226,752.66666666667,222.66666666667,752.66666666667,230,799.33333333333,228.33333333333,804.33333333333,152.66666666667,763,153.33333333333,764,138,678.33333333333,140,674.66666666667,157,655,157.66666666667"></polygon><polygon data-type="flat"  data-build="1" data-section="1" data-floor="1"  data-id="79" class="s3d-svg__build js-s3d-svg__build" points="799.33333333333,228.33333333333,792,335.33333333333,758.33333333333,337,758.33333333333,349.66666666667,645.66666666667,358.66666666667,620,315,636.33333333333,231.66666666667,654.66666666667,232,656.66666666667,226,752.66666666667,222.66666666667,752.66666666667,230"></polygon></svg>