<svg viewBox="0 0 1920 1080" version="1.0" preserveAspectRatio="xMidYMid slice" id="floor--svg" xmlns="http://www.w3.org/2000/svg"><polygon data-type="flat"  data-build="8" data-section="1" data-floor="1"  data-id="95" class="s3d-svg__build js-s3d-svg__build" points="304.60000101725,230.03333536784,319.60000101725,252.70000203451,323.26666768392,256.70000203451,330.93333435059,280.70000203451,324.93333435059,280.70000203451,320.60000101725,296.70000203451,316.93333435059,298.03333536784,317.60000101725,306.70000203451,294.93333435059,300.03333536784,289.26666768392,312.70000203451,261.60000101725,321.70000203451,228.60000101725,309.36666870117,229.60000101725,305.36666870117,233.60000101725,298.03333536784,254.93333435059,267.36666870117,264.26666768392,254.03333536784,269.93333435059,247.03333536784,268.26666768392,238.70000203451,272.26666768392,236.36666870117,274.93333435059,239.36666870117,290.93333435059,222.03333536784"></polygon><polygon data-type="flat"  data-build="8" data-section="1" data-floor="1"  data-id="97" class="s3d-svg__build js-s3d-svg__build" points="330.93333435059,280.70000203451,350.93333435059,289.70000203451,350.26666768392,284.36666870117,356.26666768392,282.70000203451,359.93333435059,291.70000203451,379.93333435059,290.70000203451,383.26666768392,276.70000203451,380.26666768392,264.36666870117,382.93333435059,258.03333536784,386.93333943685,250.36666870117,397.26667277018,250.70000203451,408.1279095726,226.11930821852,344.26666768392,223.03333536784,335.26666768392,218.03333536784,312.26666768392,215.36666870117,304.60000101725,230.03333536784,319.60000101725,252.70000203451,323.26666768392,256.70000203451"></polygon><polygon data-type="flat"  data-build="8" data-section="1" data-floor="1"  data-id="99" class="s3d-svg__build js-s3d-svg__build" points="379.93333435059,290.70000203451,434.26667277018,292.03333536784,441.60000610352,277.03333536784,434.93333943685,252.70000203451,432.26667277018,249.70000203451,444.26667277018,224.70000203451,432.60000610352,210.03333536784,409.93333943685,222.03333536784,397.26667277018,250.70000203451,386.93333943685,250.36666870117,382.93333435059,258.03333536784,380.26666768392,264.36666870117,383.26666768392,276.70000203451"></polygon><polygon data-type="flat"  data-build="8" data-section="1" data-floor="1"  data-id="101" class="s3d-svg__build js-s3d-svg__build" points="434.26667277018,292.03333536784,470.59999593099,292.03333536784,474.59999593099,276.70000203451,468.59999593099,251.36666870117,481.93332926432,223.70000203451,458.93332926432,204.03333536784,442.58353753634,222.58406059767,432.26667277018,249.70000203451,434.93333943685,252.70000203451,441.60000610352,277.03333536784"></polygon><polygon data-type="flat"  data-build="8" data-section="1" data-floor="1"  data-id="103" class="s3d-svg__build js-s3d-svg__build" points="470.59999593099,292.03333536784,474.93332926432,291.70000203451,478.93332926432,283.36666870117,500.26666259766,291.36666870117,499.26666259766,286.03333536784,504.26666259766,286.03333536784,508.93332926432,291.36666870117,528.59999593099,290.70000203451,531.59999593099,273.70000203451,529.59999593099,262.70000203451,534.26666259766,248.70000203451,543.26666259766,231.36666870117,520.26666259766,230.36666870117,518.26666259766,224.36666870117,492.26666259766,210.03333536784,485.59999593099,216.70000203451,481.93332926432,223.70000203451,468.59999593099,251.36666870117,474.59999593099,276.70000203451"></polygon><polygon data-type="flat"  data-build="8" data-section="1" data-floor="1"  data-id="105" class="s3d-svg__build js-s3d-svg__build" points="528.59999593099,290.70000203451,581.59999593099,290.70000203451,582.59999593099,276.70000203451,577.93332926432,252.70000203451,581.26666259766,248.70000203451,588.59999593099,223.36666870117,554.93332926432,221.70000203451,551.59999593099,230.36666870117,543.26666259766,231.36666870117,534.26666259766,248.70000203451,529.59999593099,262.70000203451,531.59999593099,273.70000203451"></polygon><polygon data-type="flat"  data-build="8" data-section="1" data-floor="1"  data-id="107" class="s3d-svg__build js-s3d-svg__build" points="581.59999593099,290.70000203451,623.26666259766,289.70000203451,637.59999593099,285.70000203451,637.93332926432,278.03333536784,660.26666259766,265.70000203451,671.93332926432,253.36666870117,677.59999593099,244.36666870117,683.59999593099,232.36666870117,646.93332926432,230.03333536784,627.26666259766,228.70000203451,625.26666259766,224.70000203451,602.59999593099,207.36666870117,588.59999593099,223.36666870117,581.26666259766,248.70000203451,577.93332926432,252.70000203451,582.59999593099,276.70000203451"></polygon><polygon data-type="flat"  data-build="8" data-section="1" data-floor="1"  data-id="109" class="s3d-svg__build js-s3d-svg__build" points="752.26668294271,260.36666870117,756.93334960938,263.36666870117,758.60001627604,285.03333536784,774.93334960938,289.03333536784,819.60001627604,250.03333536784,808.60001627604,243.36666870117,794.93334960938,237.70000203451,785.60001627604,238.03333536784,763.93334960938,237.70000203451,751.60001627604,237.03333536784,732.26668294271,231.70000203451,716.26668294271,227.36666870117,711.93334960938,241.03333536784,740.93334960938,251.36666870117"></polygon><polygon data-type="flat"  data-build="8" data-section="1" data-floor="1"  data-id="111" class="s3d-svg__build js-s3d-svg__build" points="711.93334960938,241.03333536784,697.93334960938,236.03333536784,690.93334960938,259.70000203451,717.26668294271,269.70000203451,726.93334960938,277.36666870117,726.60001627604,281.03333536784,731.26668294271,282.03333536784,733.26668294271,297.70000203451,765.93334960938,310.36666870117,774.93334960938,289.03333536784,758.60001627604,285.03333536784,756.93334960938,263.36666870117,752.26668294271,260.36666870117,740.93334960938,251.36666870117"></polygon><polygon data-type="flat"  data-build="8" data-section="1" data-floor="1"  data-id="113" class="s3d-svg__build js-s3d-svg__build" points="690.93334960938,259.70000203451,676.26668294271,255.70000203451,663.60001627604,282.36666870117,665.26668294271,287.70000203451,636.93334960938,308.36666870117,672.26668294271,324.03333536784,676.26668294271,327.36666870117,717.26668294271,341.70000203451,749.60001627604,312.03333536784,751.20851253479,304.65703799878,733.26668294271,297.70000203451,731.26668294271,282.03333536784,726.60001627604,281.03333536784,726.93334960938,277.36666870117,717.26668294271,269.70000203451"></polygon><polygon data-type="flat"  data-build="8" data-section="1" data-floor="1"  data-id="114" class="s3d-svg__build js-s3d-svg__build" points="644.26668294271,342.70001220703,647.60001627604,344.70001220703,652.93334960938,367.70001220703,661.26668294271,369.70001220703,696.26668294271,344.03334554036,672.26668294271,334.03334554036,672.26668294271,324.03333536784,636.93334960938,308.36666870117,610.60001627604,299.3666788737,600.93334960938,322.70001220703"></polygon><polygon data-type="flat"  data-build="8" data-section="1" data-floor="1"  data-id="115" class="s3d-svg__build js-s3d-svg__build" points="600.93334960938,322.70001220703,585.26668294271,318.03334554036,577.93334960938,338.03334554036,574.93334960938,343.03334554036,600.26668294271,352.3666788737,615.60001627604,361.03334554036,617.60001627604,367.3666788737,622.60001627604,383.3666788737,634.93334960938,389.03334554036,661.26668294271,369.70001220703,651.66216813767,362.21804211029,647.60001627604,344.70001220703,644.26668294271,342.70001220703"></polygon><polygon data-type="flat"  data-build="8" data-section="1" data-floor="1"  data-id="116" class="s3d-svg__build js-s3d-svg__build" points="574.93334960938,343.03334554036,556.60001627604,336.3666788737,544.93334960938,369.03334554036,547.60001627604,375.70001220703,517.60001627604,396.03334554036,523.60001627604,400.03334554036,526.26668294271,398.03334554036,538.93334960938,406.03334554036,594.60001627604,427.3666788737,634.93334960938,389.03334554036,622.60001627604,383.3666788737,617.60001627604,367.3666788737,615.60001627604,361.03334554036,600.26668294271,352.3666788737"></polygon><polygon data-type="flat"  data-build="8" data-section="1" data-floor="1"  data-id="112" class="s3d-svg__build js-s3d-svg__build" points="489.59999593099,501.70001220703,505.59999593099,503.70001220703,533.26666259766,501.3666788737,545.93332926432,494.3666788737,590.93332926432,447.70001220703,594.60001627604,427.3666788737,538.93334960938,406.03334554036,523.60001627604,400.03334554036,508.26666259766,416.03334554036,499.26666259766,453.03334554036,495.93332926432,459.3666788737,500.59999593099,476.70001220703"></polygon><polygon data-type="flat"  data-build="8" data-section="1" data-floor="1"  data-id="110" class="s3d-svg__build js-s3d-svg__build" points="489.59999593099,501.70001220703,441.26666259766,496.3666788737,427.59999593099,492.70001220703,407.93332926432,490.03334554036,395.93332926432,485.3666788737,393.93332926432,478.03334554036,401.26666259766,473.3666788737,440.26666259766,444.70001220703,446.93332926432,438.03334554036,448.26666259766,431.70001220703,457.59999593099,431.3666788737,464.59999593099,424.3666788737,467.59999593099,418.3666788737,482.26666259766,399.3666788737,508.26666259766,416.03334554036,499.26666259766,453.03334554036,495.93332926432,459.3666788737,500.59999593099,476.70001220703"></polygon><polygon data-type="flat"  data-build="8" data-section="1" data-floor="1"  data-id="108" class="s3d-svg__build js-s3d-svg__build" points="355.26667277018,413.3666788737,348.93333943685,386.03334554036,406.93333943685,372.3666788737,414.60000610352,395.3666788737,432.93333943685,389.70001220703,472.26667277018,405.70001220703,417.26666768392,448.70001220703,392.93333435059,462.70001220703,384.26666768392,472.70001220703,294.93333435059,434.3666788737,356.60000101725,417.70001220703"></polygon><polygon data-type="flat"  data-build="8" data-section="1" data-floor="1"  data-id="106" class="s3d-svg__build js-s3d-svg__build" points="294.93333435059,434.3666788737,294.93333435059,421.70001220703,342.93333435059,390.03334554036,338.26666768392,374.70001220703,400.26666768392,358.3666788737,403.99857853965,373.05820299315,348.93333943685,386.03334554036,355.26667277018,413.3666788737,356.60000101725,417.70001220703"></polygon><polygon data-type="flat"  data-build="8" data-section="1" data-floor="1"  data-id="94" class="s3d-svg__build js-s3d-svg__build" points="294.93333435059,421.70001220703,246.59999974569,448.70001220703,229.93333307902,451.3666788737,208.26666641235,448.03334554036,183.26666641235,441.70001220703,154.93333307902,428.3666788737,179.26666514079,385.03334554036,184.93333180745,388.03334554036,194.93333180745,354.03334554036,226.93333180745,366.3666788737,262.93333180745,382.70001220703,261.26666514079,387.3666788737,272.26666514079,410.70001220703"></polygon><polygon data-type="flat"  data-build="8" data-section="1" data-floor="1"  data-id="98" class="s3d-svg__build js-s3d-svg__build" points="354.26666641235,320.70001220703,353.26666641235,326.03334554036,359.93333307902,344.03334554036,395.36156608133,359.65888305933,338.26666768392,374.70001220703,319.93333180745,376.70001220703,292.26666514079,356.70001220703,276.26666514079,347.03334554036,230.59999847412,334.03334554036,219.26666641235,329.70001220703,228.60000101725,309.36666870117,261.60000101725,321.70000203451,289.26666768392,312.70000203451,294.93333435059,300.03333536784"></polygon><polygon data-type="flat"  data-build="8" data-section="1" data-floor="1"  data-id="96" class="s3d-svg__build js-s3d-svg__build" points="219.26666641235,329.70001220703,194.93333180745,354.03334554036,222.67844487802,364.92441559505,262.93333180745,382.70001220703,261.26666514079,387.3666788737,272.26666514079,410.70001220703,294.93333435059,421.70001220703,342.93333435059,390.03334554036,338.26666768392,374.70001220703,319.93333180745,376.70001220703,292.26666514079,356.70001220703,276.26666514079,347.03334554036"></polygon><polygon data-type="flat"  data-build="8" data-section="1" data-floor="1"  data-id="100" class="s3d-svg__build js-s3d-svg__build" points="390.327270513,357.43851902708,437.46666971842,329.3666788737,434.13333638509,325.03334554036,465.80000305176,304.70001220703,386.13333638509,304.70001220703,359.93333435059,291.70000203451,350.93333435059,289.70000203451,330.93333435059,280.70000203451,324.93333435059,280.70000203451,320.60000101725,296.70000203451,316.93333435059,298.03333536784,317.60000101725,306.70000203451,354.26666641235,320.70001220703,353.26666641235,326.03334554036,359.93333307902,344.03334554036"></polygon><polygon data-type="flat"  data-build="8" data-section="1" data-floor="1"  data-id="104" class="s3d-svg__build js-s3d-svg__build" points="398.63350421791,352.49209907326,495.06667073568,392.09999593099,536.06667073568,361.76666259766,513.73333740234,351.09999593099,507.73333740234,326.43332926432,506.73333740234,322.09999593099,465.80000305176,304.70001220703,434.13333638509,325.03334554036,437.46666971842,329.3666788737"></polygon><polygon data-type="flat"  data-build="8" data-section="1" data-floor="1"  data-id="102" class="s3d-svg__build js-s3d-svg__build" points="536.06667073568,361.76666259766,551.19428852709,351.50271657078,556.60001627604,336.3666788737,567.49829710429,340.32969008397,581.73074160485,327.67682191635,585.26668294271,318.03334554036,593.73333740234,315.09999593099,593.73333740234,307.76666259766,574.40000406901,303.43332926432,558.73333740234,303.43332926432,547.73333740234,303.43332926432,533.73333740234,303.43332926432,526.73333740234,301.76666259766,518.06667073568,299.43332926432,500.26666259766,291.36666870117,478.93332926432,283.36666870117,474.93332926432,291.70000203451,468.27301024976,305.75124064168,506.73333740234,322.09999593099,507.73333740234,326.43332926432,513.73333740234,351.09999593099"></polygon><polygon data-type="flat"  data-build="8" data-section="1" data-floor="1"  data-id="117" class="s3d-svg__build js-s3d-svg__build" points="949,120.33333333333,947,105,974.66666666667,103.66666666667,975,80.666666666667,1020.6666666667,80.333333333333,1021,92.666666666667,1041.6666666667,90.666666666667,1045,111.33333333333,1023,111.66666666667,1022,97.666666666667,977.33333333333,97.666666666667,974.33333333333,119.66666666667"></polygon><polygon data-type="flat"  data-build="8" data-section="1" data-floor="1"  data-id="118" class="s3d-svg__build js-s3d-svg__build" points="840.33333333333,120.33333333333,841.33333333333,104.33333333333,857.66666666667,104.33333333333,859,101.33333333333,861.66666666667,92.666666666667,906.33333333333,90.666666666667,905.66666666667,100,906.66666666667,104.33333333333,927.66666666667,105,929,123.33333333333,911.33333333333,123.66666666667,911.33333333333,118.66666666667,906.66666666667,118.66666666667,906.66666666667,104.33333333333,905.66666666667,100,859,101.33333333333,858,120.33333333333"></polygon><polygon data-type="flat"  data-build="8" data-section="1" data-floor="1"  data-id="119" class="s3d-svg__build js-s3d-svg__build" points="949,120.33333333333,974.33333333333,119.66666666667,977.33333333333,97.666666666667,1022,97.666666666667,1023,111.66666666667,1045,111.33333333333,1049,134.33333333333,1032.3333333333,136.33333333333,1032,124.33333333333,980.33333333333,126,978.33333333333,146.33333333333,950.66666666667,147.66666666667"></polygon><polygon data-type="flat"  data-build="8" data-section="1" data-floor="1"  data-id="120" class="s3d-svg__build js-s3d-svg__build" points="838.33333333333,143.66666666667,859.66666666667,143.66666666667,862.33333333333,132.66666666667,908,132,908.66666666667,141,930.33333333333,140.66666666667,929,123.33333333333,911.33333333333,123.66666666667,911.33333333333,118.66666666667,906.66666666667,118.66666666667,905.66666666667,100,859,101.33333333333,858,120.33333333333,840.33333333333,120.33333333333"></polygon><polygon data-type="flat"  data-build="8" data-section="1" data-floor="1"  data-id="121" class="s3d-svg__build js-s3d-svg__build" points="953.33333333333,168,978.33333333333,167.66666666667,981,141.33333333333,1032,140.66666666667,1033.3333333333,155.66666666667,1052.6666666667,156,1049,134.33333333333,1032.3333333333,136.33333333333,1032,124.33333333333,980.33333333333,126,978.33333333333,146.33333333333,950.66666666667,147.66666666667"></polygon><polygon data-type="flat"  data-build="8" data-section="1" data-floor="1"  data-id="122" class="s3d-svg__build js-s3d-svg__build" points="837,165.66666666667,858.33333333333,164.33333333333,859.66666666667,143.66666666667,907.66666666667,145,909,163.66666666667,932.33333333333,165,930.33333333333,140.66666666667,908.66666666667,141,908,132,862.33333333333,132.66666666667,859.66666666667,143.66666666667,838.33333333333,143.66666666667"></polygon><polygon data-type="flat"  data-build="8" data-section="1" data-floor="1"  data-id="123" class="s3d-svg__build js-s3d-svg__build" points="955.66666666667,193.33333333333,981.33333333333,192.66666666667,983,180.66666666667,1033.6666666667,180.33333333333,1034.6666666667,187,1058,186.66666666667,1052.6666666667,156,1033.3333333333,155.66666666667,1032,140.66666666667,981,141.33333333333,978.33333333333,167.66666666667,953.33333333333,168"></polygon><polygon data-type="flat"  data-build="8" data-section="1" data-floor="1"  data-id="124" class="s3d-svg__build js-s3d-svg__build" points="908,192.33333333333,934.33333333333,192.66666666667,932.33333333333,165,909,163.66666666667,907.66666666667,145,857.66666666667,144,858.33333333333,164.33333333333,837,165.66666666667,835.33333333333,195,859,194,859.66666666667,189.66666666667,907.66666666667,189.33333333333"></polygon><polygon data-type="flat"  data-build="8" data-section="1" data-floor="1"  data-id="125" class="s3d-svg__build js-s3d-svg__build" points="1036.3333333333,227.66666666667,1064.3333333333,226.33333333333,1058,186.66666666667,1034.6666666667,187,1033.6666666667,180.33333333333,983,180.66666666667,981.33333333333,192.66666666667,955.66666666667,193.33333333333,958,217,983.33333333333,216,986,192.66666666667,1034,192"></polygon><polygon data-type="flat"  data-build="8" data-section="1" data-floor="1"  data-id="126" class="s3d-svg__build js-s3d-svg__build" points="909,227.66666666667,937.33333333333,228,934.33333333333,192.66666666667,908,192.33333333333,907.66666666667,189.33333333333,859.66666666667,189.66666666667,859,194,835.33333333333,195,833.66666666667,214.33333333333,854.33333333333,215,854.66666666667,199.33333333333,907,201.33333333333"></polygon><polygon data-type="flat"  data-build="8" data-section="1" data-floor="1"  data-id="127" class="s3d-svg__build js-s3d-svg__build" points="960.66666666667,245.66666666667,992.33333333333,245.33333333333,994.33333333333,239.33333333333,1047,247,1068.6666666667,247,1064.3333333333,226.33333333333,1036.3333333333,227.66666666667,1034,192,986,192.66666666667,983.33333333333,216,958,217"></polygon><polygon data-type="flat"  data-build="8" data-section="1" data-floor="1"  data-id="128" class="s3d-svg__build js-s3d-svg__build" points="902.33333333333,254.33333333333,940,252.66666666667,937.33333333333,228,909,227.66666666667,907,201.33333333333,854.66666666667,199.33333333333,854.33333333333,215,833.66666666667,214.33333333333,828,248.33333333333,835.33333333333,248.33333333333,843,249,850.66666666667,234,899,250"></polygon><polygon data-type="flat"  data-build="8" data-section="1" data-floor="1"  data-id="129" class="s3d-svg__build js-s3d-svg__build" points="1043,293,1065.6666666667,295.66666666667,1068,291.66666666667,1076,289,1068.6666666667,247,1047,247,994.33333333333,239.33333333333,992.33333333333,245.33333333333,960.66666666667,245.66666666667,964,278.66666666667,983.33333333333,281.33333333333,991.33333333333,250.66666666667,1043,258,1044.6666666667,280"></polygon><polygon data-type="flat"  data-build="8" data-section="1" data-floor="1"  data-id="130" class="s3d-svg__build js-s3d-svg__build" points="888,296,911.33333333333,303.66666666667,937,282,942,272.33333333333,940,252.66666666667,902.33333333333,254.33333333333,899,250,850.66666666667,234,843,249,879,261.33333333333,888,269.66666666667"></polygon><polygon data-type="flat"  data-build="8" data-section="1" data-floor="1"  data-id="131" class="s3d-svg__build js-s3d-svg__build" points="964,278.66666666667,936.66666666667,303,1036.6666666667,340,1065.6666666667,295.66666666667,1043,293,1044.3333333333,278,1043,258,991.33333333333,250.66666666667,983.33333333333,281.33333333333"></polygon><polygon data-type="flat"  data-build="8" data-section="1" data-floor="1"  data-id="133" class="s3d-svg__build js-s3d-svg__build" points="914,310.33333333333,905.33333333333,333,937,344.66666666667,950.33333333333,356,949.66666666667,382.33333333333,981.66666666667,394.33333333333,1015,358.66666666667,1020.3333333333,351,973.66666666667,336.66666666667,961.66666666667,325.66666666667"></polygon><polygon data-type="flat"  data-build="8" data-section="1" data-floor="1"  data-id="134" class="s3d-svg__build js-s3d-svg__build" points="788.33333333333,299,817.66666666667,308.66666666667,831.66666666667,320.66666666667,831.33333333333,344.66666666667,855,353.66666666667,886.33333333333,326,862,317.33333333333,862.33333333333,304.33333333333,843,294.66666666667,827.66666666667,289.66666666667,827.33333333333,277,810,271.33333333333,796,279.33333333333"></polygon><polygon data-type="flat"  data-build="8" data-section="1" data-floor="1"  data-id="135" class="s3d-svg__build js-s3d-svg__build" points="890.66666666667,328.33333333333,881.33333333333,355.66666666667,858.33333333333,376,869.66666666667,380,869.66666666667,395,882.33333333333,400,896.33333333333,410.33333333333,942.33333333333,428.66666666667,947.66666666667,424,981.66666666667,394.33333333333,949.66666666667,382.33333333333,950.33333333333,356,937,344.66666666667,905.33333333333,333"></polygon><polygon data-type="flat"  data-build="8" data-section="1" data-floor="1"  data-id="136" class="s3d-svg__build js-s3d-svg__build" points="855,353.66666666667,820.66666666667,385,717.26668294271,341.70000203451,749.60001627604,312.03333536784,751.20851253479,304.65703799878,765.93334960938,310.36666870117,773,293.33333333333,788.33333333333,299,817.66666666667,308.66666666667,831.66666666667,320.66666666667,831.33333333333,344.66666666667"></polygon><polygon data-type="flat"  data-build="8" data-section="1" data-floor="1"  data-id="137" class="s3d-svg__build js-s3d-svg__build" points="832,381,822,408.66666666667,856.66666666667,423.33333333333,870,432,870.66666666667,458,902.66666666667,469.66666666667,942.33333333333,428.66666666667,896.33333333333,410.33333333333,882.33333333333,400,869.66666666667,395"></polygon><polygon data-type="flat"  data-build="8" data-section="1" data-floor="1"  data-id="138" class="s3d-svg__build js-s3d-svg__build" points="690.66666666667,372,697,352.33333333333,724.33333333333,358.33333333333,728,355,815,389.33333333333,766.66666666667,433.66666666667,740,423.33333333333,737.66666666667,392.33333333333,727.33333333333,386.33333333333"></polygon><polygon data-type="flat"  data-build="8" data-section="1" data-floor="1"  data-id="139" class="s3d-svg__build js-s3d-svg__build" points="800.66666666667,479,868.66666666667,505.33333333333,904.66666666667,471,870.66666666667,458,870,432,856.66666666667,423.33333333333,809.66666666667,404,793,437,788.33333333333,436,773,453,784.33333333333,457.66666666667,785.33333333333,466.66666666667"></polygon><polygon data-type="flat"  data-build="8" data-section="1" data-floor="1"  data-id="132" class="s3d-svg__build js-s3d-svg__build" points="911.33333333333,303.66666666667,886.33333333333,326,862,317.33333333333,862.33333333333,304.33333333333,843,294.66666666667,827.66666666667,289.66666666667,827.33333333333,277,810,271.33333333333,832,255,835.33333333333,248.33333333333,843,249,879,261.33333333333,888,269.66666666667,888,296"></polygon><polygon data-type="flat"  data-build="8" data-section="1" data-floor="1"  data-id="142" class="s3d-svg__build js-s3d-svg__build" points="545.93332926432,494.3666788737,543,501,631,551.66666666667,723.66666666667,473.33333333333,700,464,709.66666666667,456,701.66666666667,453,699,436.33333333333,655.66666666667,418.33333333333,641,417.33333333333,613,417.33333333333,590.93332926432,447.70001220703"></polygon><polygon data-type="flat"  data-build="8" data-section="1" data-floor="1"  data-id="143" class="s3d-svg__build js-s3d-svg__build" points="738.66666666667,469.33333333333,762.66666666667,486,761.66666666667,536.33333333333,764.66666666667,560.66666666667,767,602.33333333333,642.33333333333,567.66666666667,641.33333333333,562.66666666667,696.33333333333,510,697.33333333333,501.33333333333,711,499"></polygon><polygon data-type="flat"  data-build="8" data-section="1" data-floor="1"  data-id="141" class="s3d-svg__build js-s3d-svg__build" points="767,602.33333333333,775.66666666667,604.33333333333,868.66666666667,505.33333333333,800.66666666667,479,783,465.33333333333,762.66666666667,486,761.66666666667,536.33333333333,764.66666666667,560.66666666667"></polygon><polygon data-type="flat"  data-build="8" data-section="1" data-floor="1"  data-id="140" class="s3d-svg__build js-s3d-svg__build" points="744,453,766.66666666667,433.66666666667,740,423.33333333333,737.66666666667,392.33333333333,727.33333333333,386.33333333333,676.66666666667,366.33333333333,661,398,663.66666666667,412.66666666667,655.66666666667,418.33333333333,699,436.33333333333,701.66666666667,453,709.66666666667,456,723.66666666667,444.33333333333"></polygon></svg>