<svg viewBox="0 0 1920 1080" version="1.0" preserveAspectRatio="xMidYMid slice" id="floor--svg" xmlns="http://www.w3.org/2000/svg"><polygon data-type="flat"  data-build="1" data-section="1" data-floor="1"  data-id="88" class="s3d-svg__build js-s3d-svg__build" points="309.5,295.5,339,222.5,353.5,213.5,365,208,381,205,395,187,495,184.5,495,187.5,491,197,494.5,203.5,555,203.5,558,211.5,509,317,494,319,495,308.5,444,310,441,302.5,444,288,311,298.5"></polygon><polygon data-type="flat"  data-build="1" data-section="1" data-floor="1"  data-id="89" class="s3d-svg__build js-s3d-svg__build" points="595,204,562,287,562,291.5,567.5,298.5,574,299,791.5,299.5,807.5,202,767.5,202.5,771.5,184,771,182.5,602.5,186"></polygon><polygon data-type="flat"  data-build="1" data-section="1" data-floor="1"  data-id="90" class="s3d-svg__build js-s3d-svg__build" points="1067,299,1054,202,1004,203,1002,181,838,186.5,835.5,203,807.5,202,791.5,299.5"></polygon><polygon data-type="flat"  data-build="1" data-section="1" data-floor="1"  data-id="91" class="s3d-svg__build js-s3d-svg__build" points="1146,201.5,1169,299,1416,296,1359.5,200.5,1344,200,1332.5,178.5,1169.5,182.5,1173,200"></polygon><polygon data-type="flat"  data-build="1" data-section="1" data-floor="1"  data-id="92" class="s3d-svg__build js-s3d-svg__build" points="1416,296,1499,296.5,1499,291,1546,290,1548.5,295,1557.5,295,1564,278.5,1554,263.5,1578,264.5,1590.5,227.5,1603.5,227,1604,222.5,1565,178,1402,179,1409,192.5,1407,199,1359.5,200.5"></polygon><polygon data-type="flat"  data-build="1" data-section="1" data-floor="1"  data-id="82" class="s3d-svg__build js-s3d-svg__build" points="509,317,485.5,447.5,254,448.5,311,298.5,444,288,441,302.5,444,310,495,308.5,494,319"></polygon><polygon data-type="flat"  data-build="1" data-section="1" data-floor="1"  data-id="83" class="s3d-svg__build js-s3d-svg__build" points="822,434.5,560.5,436.5,547.5,432,541,426,538,414.5,538,403,545,339,548.5,331,554,326,564.5,323,574,299,766,299,762,314.5,832.5,316"></polygon><polygon data-type="flat"  data-build="1" data-section="1" data-floor="1"  data-id="84" class="s3d-svg__build js-s3d-svg__build" points="822,434.5,1107,431.5,1089,315.5,1058.5,317,1056.5,298.5,868,301.5,868,306,855,307,854.5,314,832.5,316"></polygon><polygon data-type="flat"  data-build="1" data-section="1" data-floor="1"  data-id="85" class="s3d-svg__build js-s3d-svg__build" points="1089,315.5,1110.5,316,1109.5,305.5,1147,304,1146.5,300,1256,298.5,1261,312,1295,312,1361.5,510,1130,571.5"></polygon><polygon data-type="flat"  data-build="1" data-section="1" data-floor="1"  data-id="86" class="s3d-svg__build js-s3d-svg__build" points="1295,312,1361.5,510,1564,475.5,1502,368,1505,357.5,1515,357,1488,309.5,1455,310.5,1447.5,298,1333,297.5,1340,312.5"></polygon><polygon data-type="flat"  data-build="1" data-section="1" data-floor="1"  data-id="87" class="s3d-svg__build js-s3d-svg__build" points="1502,368,1564,475.5,1790,425,1757.5,383.5,1759,379.5,1658.5,261.5,1554,263.5,1564,278.5,1557.5,295,1548.5,295,1546,290,1499,291,1491,313.5,1515,357,1505,357.5"></polygon><polygon data-type="flat"  data-build="1" data-section="1" data-floor="1"  data-id="79" class="s3d-svg__build js-s3d-svg__build" points="844,607.5,855.5,484.5,851.5,484.5,854.5,447,857.5,446.5,859,433,1107,431.5,1130,571.5,1030.5,598.5,900,610"></polygon><polygon data-type="flat"  data-build="1" data-section="1" data-floor="1"  data-id="80" class="s3d-svg__build js-s3d-svg__build" points="558.5,447,527.5,534,529,536.5,534.5,535.5,516,601,844,607.5,855.5,484.5,851.5,484.5,854.5,447,780.5,447,780.5,445.5"></polygon><polygon data-type="flat"  data-build="1" data-section="1" data-floor="1"  data-id="81" class="s3d-svg__build js-s3d-svg__build" points="516,601,210.5,596.5,222,539,219,535,235,494.5,254,448.5,498,447,498.5,454,556.5,452.5,527.5,534,534.5,535.5"></polygon></svg>