<svg viewBox="0 0 1920 1080" version="1.0" preserveAspectRatio="xMidYMid slice" id="floor--svg" xmlns="http://www.w3.org/2000/svg"><polygon data-type="flat"  data-build="8" data-section="1" data-floor="1"  data-id="95" class="s3d-svg__build js-s3d-svg__build" points="819.19999186198,873.03336588542,767.86665852865,914.03336588542,769.53332519531,919.36669921875,773.19999186198,940.03336588542,768.19999186198,943.03336588542,764.53332519531,933.70003255208,730.53332519531,963.03336588542,732.53332519531,971.03336588542,771.53332519531,999.36669921875,926.53332519531,976.70003255208,955.19999186198,910.03336588542,853.86665852865,874.36669921875,852.19999186198,866.03336588542,843.53332519531,867.70003255208,836.53332519531,872.70003255208,830.86665852865,869.70003255208"></polygon><polygon data-type="flat"  data-build="8" data-section="1" data-floor="1"  data-id="97" class="s3d-svg__build js-s3d-svg__build" points="730.53332519531,963.03336588542,721.33333333333,961.10001627604,706,952.10001627604,697.33333333333,942.43334960938,688.33333333333,846.76668294271,732,837.76668294271,776,830.76668294271,778.66666666667,838.10001627604,848,827.10001627604,852.19999186198,866.03336588542,843.53332519531,867.70003255208,836.53332519531,872.70003255208,830.86665852865,869.70003255208,819.19999186198,873.03336588542,767.86665852865,914.03336588542,769.53332519531,919.36669921875,773.19999186198,940.03336588542,768.19999186198,943.03336588542,764.53332519531,933.70003255208"></polygon><polygon data-type="flat"  data-build="8" data-section="1" data-floor="1"  data-id="100" class="s3d-svg__build js-s3d-svg__build" points="974,769.76668294271,950,821.76668294271,946.33333333333,824.43334960938,946.33333333333,843.10001627604,934.33333333333,873.43334960938,898.66666666667,861.76668294271,897.33333333333,856.10001627604,881.33333333333,839.76668294271,861,707.10001627604,993.33333333333,746.43334960938,984.66666666667,765.43334960938"></polygon><polygon data-type="flat"  data-build="8" data-section="1" data-floor="1"  data-id="98" class="s3d-svg__build js-s3d-svg__build" points="934.33333333333,873.43334960938,1008.6666666667,897.76668294271,1058,765.76668294271,993.33333333333,746.43334960938,984.66666666667,765.43334960938,974,769.76668294271,950,821.76668294271,946.33333333333,824.43334960938,946.33333333333,843.10001627604"></polygon><polygon data-type="flat"  data-build="8" data-section="1" data-floor="1"  data-id="96" class="s3d-svg__build js-s3d-svg__build" points="1115,808.43334960938,1093.6666666667,868.43334960938,1089,872.43334960938,1087.3333333333,892.43334960938,1079,922.10001627604,1008.6666666667,897.76668294271,1058,765.76668294271,1127,786.43334960938,1120.3333333333,806.10001627604"></polygon><polygon data-type="flat"  data-build="8" data-section="1" data-floor="1"  data-id="94" class="s3d-svg__build js-s3d-svg__build" points="1079,922.10001627604,1120.3333333333,935.10001627604,1149,939.10001627604,1149.6666666667,934.43334960938,1191,927.10001627604,1225,816.43334960938,1127,786.43334960938,1120.3333333333,806.10001627604,1115,808.43334960938,1093.6666666667,868.43334960938,1089,872.43334960938,1087.3333333333,892.43334960938"></polygon><polygon data-type="flat"  data-build="8" data-section="1" data-floor="1"  data-id="99" class="s3d-svg__build js-s3d-svg__build" points="848,827.10001627604,838,765.76668294271,805.33333333333,771.10001627604,801,748.43334960938,732.33333333333,760.43334960938,733.33333333333,777.10001627604,685.66666666667,783.43334960938,688.33333333333,846.76668294271,732,837.76668294271,776,830.76668294271,778.66666666667,838.10001627604"></polygon><polygon data-type="flat"  data-build="8" data-section="1" data-floor="1"  data-id="101" class="s3d-svg__build js-s3d-svg__build" points="685.66666666667,783.43334960938,684.66666666667,748.10001627604,728,741.10001627604,725.33333333333,720.43334960938,792,711.76668294271,797,737.43334960938,834.66666666667,732.43334960938,838,765.76668294271,805.33333333333,771.10001627604,801,748.43334960938,732.33333333333,760.43334960938,733.33333333333,777.10001627604"></polygon><polygon data-type="flat"  data-build="8" data-section="1" data-floor="1"  data-id="103" class="s3d-svg__build js-s3d-svg__build" points="684.66666666667,748.10001627604,682.33333333333,694.76668294271,749.33333333333,683.43334960938,826.66666666667,672.10001627604,834.66666666667,732.43334960938,797,737.43334960938,792,711.76668294271,725.33333333333,720.43334960938,728,741.10001627604"></polygon><polygon data-type="flat"  data-build="8" data-section="1" data-floor="1"  data-id="105" class="s3d-svg__build js-s3d-svg__build" points="826.66666666667,672.10001627604,820.66666666667,633.10001627604,789.33333333333,635.10001627604,786.66666666667,615.43334960938,782.66666666667,611.10001627604,723,617.76668294271,722.66666666667,639.10001627604,690.33333333333,644.10001627604,682.33333333333,694.76668294271"></polygon><polygon data-type="flat"  data-build="8" data-section="1" data-floor="1"  data-id="107" class="s3d-svg__build js-s3d-svg__build" points="690.33333333333,644.10001627604,703,561.43334960938,751,568.76668294271,798.66666666667,583.10001627604,811.33333333333,591.43334960938,817.66666666667,604.76668294271,820.66666666667,633.10001627604,789.33333333333,635.10001627604,786.66666666667,615.43334960938,782.66666666667,611.10001627604,723,617.76668294271,722.66666666667,639.10001627604"></polygon><polygon data-type="flat"  data-build="8" data-section="1" data-floor="1"  data-id="102" class="s3d-svg__build js-s3d-svg__build" points="949.66666666667,629.76668294271,928,672.43334960938,924,670.43334960938,924.33333333333,695.10001627604,908.46945022101,721.20932389841,861,707.10001627604,847.66666666667,621.76668294271,853,613.76668294271,861.66666666667,609.10001627604,870.33333333333,606.10001627604,879.33333333333,604.10001627604,900.66666666667,609.10001627604,910,612.43334960938,929.33333333333,605.10001627604,951.66666666667,624.43334960938"></polygon><polygon data-type="flat"  data-build="8" data-section="1" data-floor="1"  data-id="104" class="s3d-svg__build js-s3d-svg__build" points="908.46945022101,721.20932389841,982.3159061716,743.15864833712,1018.6666666667,672.10001627604,1011.3333333333,669.76668294271,1022.6666666667,646.10001627604,951.66666666667,624.43334960938,949.66666666667,629.76668294271,928,672.43334960938,924,670.43334960938,924.33333333333,695.10001627604"></polygon><polygon data-type="flat"  data-build="8" data-section="1" data-floor="1"  data-id="106" class="s3d-svg__build js-s3d-svg__build" points="1018.6666666667,672.10001627604,1050.6666666667,682.43334960938,1058.6666666667,672.76668294271,1067.3333333333,677.10001627604,1107.6666666667,716.10001627604,1113.3333333333,720.76668294271,1112,738.43334960938,1154,776.43334960938,1150.2249301853,793.54302211509,982.3159061716,743.15864833712"></polygon><polygon data-type="flat"  data-build="8" data-section="1" data-floor="1"  data-id="108" class="s3d-svg__build js-s3d-svg__build" points="1154,776.43334960938,1161.6666666667,751.10001627604,1166,742.10001627604,1207,691.10001627604,1203,686.43334960938,1189.3333333333,681.10001627604,1125.6666666667,664.43334960938,1118.6666666667,658.43334960938,1110,664.43334960938,1103.6666666667,659.43334960938,1079.6666666667,657.76668294271,1076.6666666667,661.76668294271,1052,654.10001627604,1041.0449706855,679.32634361547,1050.6666666667,682.43334960938,1058.6666666667,672.76668294271,1067.3333333333,677.10001627604,1107.6666666667,716.10001627604,1113.3333333333,720.76668294271,1112,738.43334960938"></polygon><polygon data-type="flat"  data-build="8" data-section="1" data-floor="1"  data-id="110" class="s3d-svg__build js-s3d-svg__build" points="1196.6666666667,587.43334960938,1204.2000325521,601.2333577474,1206.5333658854,612.2333577474,1207.2000325521,624.56669108073,1205.5333658854,642.2333577474,1201.8666992188,654.56669108073,1198,666.76668294271,1058.6666666667,634.76668294271,1070,612.76668294271,1100,602.76668294271,1101.6666666667,582.43334960938,1111,577.76668294271,1166.3333333333,568.76668294271,1170.3333333333,592.10001627604"></polygon><polygon data-type="flat"  data-build="8" data-section="1" data-floor="1"  data-id="112" class="s3d-svg__build js-s3d-svg__build" points="1070,612.76668294271,1035.6666666667,603.10001627604,1064,539.43334960938,1109.3333333333,545.76668294271,1161.3333333333,536.10001627604,1163.6666666667,551.76668294271,1180,555.76668294271,1185.3333333333,557.76668294271,1182.6666666667,564.10001627604,1185,571.10001627604,1190,578.43334960938,1196.6666666667,587.43334960938,1170.3333333333,592.10001627604,1166.3333333333,568.76668294271,1111,577.76668294271,1101.6666666667,582.43334960938,1100,602.76668294271"></polygon><polygon data-type="flat"  data-build="8" data-section="1" data-floor="1"  data-id="109" class="s3d-svg__build js-s3d-svg__build" points="772.86665852865,512.56669108073,775.19999186198,533.56669108073,760.53332519531,553.2333577474,706.53332519531,537.90002441406,709.86665852865,521.2333577474,708.86665852865,505.90002441406,708.53332519531,488.56669108073,708.53332519531,476.2333577474,719.86665852865,453.90000406901,724.19999186198,449.23333740234,775.19999186198,462.56667073568,779.86665852865,459.23333740234,795.53332519531,472.90000406901,772.19999186198,507.23333740234"></polygon><polygon data-type="flat"  data-build="8" data-section="1" data-floor="1"  data-id="111" class="s3d-svg__build js-s3d-svg__build" points="805.86665852865,521.2333577474,808.53332519531,543.90002441406,797.86665852865,563.56669108073,760.53332519531,553.2333577474,775.19999186198,533.56669108073,772.86665852865,512.56669108073,772.19999186198,507.23333740234,795.53332519531,472.90000406901,812.53332519531,461.23333740234,832.19999186198,483.90000406901"></polygon><polygon data-type="flat"  data-build="8" data-section="1" data-floor="1"  data-id="113" class="s3d-svg__build js-s3d-svg__build" points="797.86665852865,563.56669108073,852.19999186198,577.90002441406,900.53332519531,494.56667073568,846.53332519531,480.56667073568,841.19999186198,477.23333740234,832.19999186198,483.90000406901,805.86665852865,521.2333577474,808.53332519531,543.90002441406"></polygon><polygon data-type="flat"  data-build="8" data-section="1" data-floor="1"  data-id="114" class="s3d-svg__build js-s3d-svg__build" points="865.86665852865,583.56669108073,881.53332519531,556.2333577474,880.53332519531,550.56669108073,891.86665852865,531.90002441406,898.19999186198,532.90002441406,916.53332519531,501.2333577474,927.53332519531,504.2333577474,939.19999186198,496.2333577474,959.86665852865,515.90002441406,939.19999186198,553.56669108073,940.19999186198,557.56669108073,939.53332519531,578.2333577474,927.19999186198,599.90002441406"></polygon><polygon data-type="flat"  data-build="8" data-section="1" data-floor="1"  data-id="115" class="s3d-svg__build js-s3d-svg__build" points="927.19999186198,599.90002441406,942.19999186198,603.56669108073,947.19999186198,600.56669108073,969.19999186198,607.56669108073,975.53332519531,590.56669108073,974.53332519531,566.56669108073,977.86665852865,563.56669108073,998.19999186198,527.90002441406,979.19999186198,503.90002441406,959.86665852865,515.90002441406,939.19999186198,553.56669108073,940.19999186198,557.56669108073,939.53332519531,578.2333577474"></polygon><polygon data-type="flat"  data-build="8" data-section="1" data-floor="1"  data-id="116" class="s3d-svg__build js-s3d-svg__build" points="969.19999186198,607.56669108073,970.19999186198,610.56669108073,1025.8666585286,627.56669108073,1035.6666666667,603.10001627604,1064,539.43334960938,1022.5333251953,527.90002441406,1014.8666585286,516.56669108073,998.19999186198,527.90002441406,977.86665852865,563.56669108073,974.53332519531,566.56669108073,975.53332519531,590.56669108073"></polygon><polygon data-type="flat"  data-build="8" data-section="1" data-floor="1"  data-id="117" class="s3d-svg__build js-s3d-svg__build" points="405.96875,405,458.30208333333,399.33333333333,452.96875,375.33333333333,457.63541666667,344,433.63541666667,330.66666666667,427.63541666667,339.33333333333,420.30208333333,344.33333333333,417.30208333333,377.66666666667,405.96875,378.33333333333"></polygon><polygon data-type="flat"  data-build="8" data-section="1" data-floor="1"  data-id="118" class="s3d-svg__build js-s3d-svg__build" points="388.30208333333,509.33333333333,454.63541666667,499.66666666667,455.63541666667,475.66666666667,447.96875,456.33333333333,450.96875,415.33333333333,434.63541666667,409.66666666667,412.30208333333,427.33333333333,411.63541666667,434.66666666667,396.30208333333,435.66666666667,395.63541666667,456,388.96875,455.66666666667,381.63541666667,503.66666666667"></polygon><polygon data-type="flat"  data-build="8" data-section="1" data-floor="1"  data-id="119" class="s3d-svg__build js-s3d-svg__build" points="511.96875,380.33333333333,515.96875,344.66666666667,496.63541666667,347.33333333333,494.63541666667,339.66666666667,488.96875,340,469.96875,329.66666666667,457.63541666667,344,452.96875,375.33333333333,458.30208333333,399.33333333333,515.96875,392.66666666667"></polygon><polygon data-type="flat"  data-build="8" data-section="1" data-floor="1"  data-id="120" class="s3d-svg__build js-s3d-svg__build" points="454.63541666667,499.66666666667,513.63541666667,491.33333333333,514.96875,426,494.96875,428.33333333333,492.30208333333,415.66666666667,485.96875,417,458.30208333333,408.33333333333,450.96875,415.33333333333,447.96875,456.33333333333,455.63541666667,475.66666666667"></polygon><polygon data-type="flat"  data-build="8" data-section="1" data-floor="1"  data-id="121" class="s3d-svg__build js-s3d-svg__build" points="566.30208333333,387,561.63541666667,363.66666666667,561.96875,329.33333333333,540.30208333333,316,532.30208333333,329.66666666667,525.63541666667,336.66666666667,525.63541666667,343.33333333333,515.96875,344.66666666667,511.96875,380.33333333333,515.96875,392.66666666667"></polygon><polygon data-type="flat"  data-build="8" data-section="1" data-floor="1"  data-id="122" class="s3d-svg__build js-s3d-svg__build" points="513.63541666667,491.33333333333,572.63541666667,482.66666666667,569.63541666667,460.33333333333,562.96875,439,564.63541666667,405,550.63541666667,398,542.30208333333,393.33333333333,525.63541666667,412.66666666667,525.63541666667,423.66666666667,514.96875,426"></polygon><polygon data-type="flat"  data-build="8" data-section="1" data-floor="1"  data-id="123" class="s3d-svg__build js-s3d-svg__build" points="566.30208333333,387,619.96875,381,617.30208333333,366.33333333333,616.63541666667,334.33333333333,599.63541666667,336.66666666667,597.96875,329.33333333333,574.96875,314,561.96875,329.33333333333,561.63541666667,363.66666666667"></polygon><polygon data-type="flat"  data-build="8" data-section="1" data-floor="1"  data-id="124" class="s3d-svg__build js-s3d-svg__build" points="572.63541666667,482.66666666667,635.30208333333,473.66666666667,629.30208333333,410,604.96875,413.33333333333,603.30208333333,402.66666666667,578.30208333333,387.66666666667,564.63541666667,405,562.96875,439,569.63541666667,460.33333333333"></polygon><polygon data-type="flat"  data-build="8" data-section="1" data-floor="1"  data-id="125" class="s3d-svg__build js-s3d-svg__build" points="619.96875,381,670.63541666667,375.66666666667,665.63541666667,349,663.63541666667,319.66666666667,629.96875,324.33333333333,630.30208333333,332,616.63541666667,334.33333333333,617.30208333333,366.33333333333"></polygon><polygon data-type="flat"  data-build="8" data-section="1" data-floor="1"  data-id="126" class="s3d-svg__build js-s3d-svg__build" points="635.30208333333,473.66666666667,661.30208333333,468,689.30208333333,465,683.96875,427,682.30208333333,390.66666666667,668.30208333333,381.66666666667,644.63541666667,400.33333333333,645.30208333333,409.33333333333,629.30208333333,410"></polygon><polygon data-type="flat"  data-build="8" data-section="1" data-floor="1"  data-id="127" class="s3d-svg__build js-s3d-svg__build" points="670.63541666667,375.66666666667,723,369.66666666667,725.96875,356.66666666667,723.96875,346.66666666667,730.30208333333,320.33333333333,701,324.33333333333,700.33333333333,317.66666666667,678.33333333333,306.33333333333,663.63541666667,319.66666666667,665.63541666667,349"></polygon><polygon data-type="flat"  data-build="8" data-section="1" data-floor="1"  data-id="128" class="s3d-svg__build js-s3d-svg__build" points="689.30208333333,465,716,461.66666666667,719.86665852865,453.90000406901,724.19999186198,449.23333740234,731.66666666667,442.66666666667,744,436.66666666667,742.66666666667,398.66666666667,739,398.66666666667,722.33333333333,400.33333333333,720,391.66666666667,691.33333333333,380.33333333333,682.30208333333,390.66666666667,683.96875,427"></polygon><polygon data-type="flat"  data-build="8" data-section="1" data-floor="1"  data-id="129" class="s3d-svg__build js-s3d-svg__build" points="725.96875,356.66666666667,777.30208333333,360,773.96875,335.33333333333,779.96875,304.33333333333,770.30208333333,298.66666666667,747.63541666667,311.33333333333,746.30208333333,318,730.30208333333,320.33333333333,723.96875,346.66666666667"></polygon><polygon data-type="flat"  data-build="8" data-section="1" data-floor="1"  data-id="130" class="s3d-svg__build js-s3d-svg__build" points="760.66666666667,459.33333333333,777,446.66666666667,774,421.33333333333,801.66666666667,388.66666666667,787.33333333333,372.66666666667,766,392.66666666667,758.66666666667,390,744,409.66666666667,744,436.66666666667,731.66666666667,442.66666666667,724.19999186198,449.23333740234"></polygon><polygon data-type="flat"  data-build="8" data-section="1" data-floor="1"  data-id="131" class="s3d-svg__build js-s3d-svg__build" points="777.30208333333,360,828.33333333333,363,833,347.33333333333,830.33333333333,335.66666666667,817.33333333333,335,817.33333333333,311.33333333333,790.66666666667,297.33333333333,779.96875,304.33333333333,773.96875,335.33333333333"></polygon><polygon data-type="flat"  data-build="8" data-section="1" data-floor="1"  data-id="132" class="s3d-svg__build js-s3d-svg__build" points="775.19999186198,462.56667073568,779.86665852865,459.23333740234,789,467,800.33333333333,469.33333333333,812.53332519531,461.23333740234,848.33333333333,414,826.33333333333,408.33333333333,824.66666666667,399.33333333333,809.33333333333,381,801.66666666667,388.66666666667,774,421.33333333333,777,446.66666666667,760.66666666667,459.33333333333"></polygon><polygon data-type="flat"  data-build="8" data-section="1" data-floor="1"  data-id="133" class="s3d-svg__build js-s3d-svg__build" points="910,391.66666666667,905.33333333333,398.66666666667,897,406.33333333333,885,403,873.66666666667,392,865,398,854,394.66666666667,865.66666666667,380.66666666667,863.33333333333,369.33333333333,874.33333333333,354.66666666667,880.66666666667,355.66666666667,900,333.33333333333,915,320.66666666667,931.33333333333,340.33333333333,909.66666666667,371.33333333333"></polygon><polygon data-type="flat"  data-build="8" data-section="1" data-floor="1"  data-id="134" class="s3d-svg__build js-s3d-svg__build" points="854.66666666667,483,868.66666666667,464,867.66666666667,443.33333333333,891.66666666667,410.33333333333,873.66666666667,392,856,404,812.53332519531,461.23333740234,823.66666666667,474,837,480.33333333333,841.19999186198,477.23333740234,846.53332519531,480.56667073568"></polygon><polygon data-type="flat"  data-build="8" data-section="1" data-floor="1"  data-id="135" class="s3d-svg__build js-s3d-svg__build" points="905.33333333333,398.66666666667,917,411,957,420.33333333333,996.33333333333,358.33333333333,961.33333333333,351,944.66666666667,330,931.33333333333,340.33333333333,909.66666666667,371.33333333333,910,391.66666666667"></polygon><polygon data-type="flat"  data-build="8" data-section="1" data-floor="1"  data-id="136" class="s3d-svg__build js-s3d-svg__build" points="854.66666666667,483,910.33333333333,496.33333333333,952.33333333333,432.33333333333,925.33333333333,425.33333333333,925.33333333333,421.66666666667,905.33333333333,398.66666666667,897,406.33333333333,891.66666666667,410.33333333333,867.66666666667,443.33333333333,868.66666666667,464"></polygon><polygon data-type="flat"  data-build="8" data-section="1" data-floor="1"  data-id="137" class="s3d-svg__build js-s3d-svg__build" points="957,420.33333333333,1000.3333333333,430,1008,428.66666666667,1012.6666666667,432.66666666667,1018.3333333333,434,1027.6666666667,420.66666666667,1027.6666666667,399,1048,368,1030.3333333333,347.33333333333,1010.6666666667,362,996.33333333333,358.33333333333"></polygon><polygon data-type="flat"  data-build="8" data-section="1" data-floor="1"  data-id="138" class="s3d-svg__build js-s3d-svg__build" points="989.33333333333,517,997.33333333333,506.33333333333,996.33333333333,481,1020.3333333333,441.66666666667,1008,428.66666666667,974.66666666667,439.33333333333,962,435.33333333333,916.53332519531,501.2333577474,927.53332519531,504.2333577474,939.19999186198,496.2333577474,959.86665852865,515.90002441406,979.19999186198,503.90002441406"></polygon><polygon data-type="flat"  data-build="8" data-section="1" data-floor="1"  data-id="139" class="s3d-svg__build js-s3d-svg__build" points="1018.3333333333,434,1028.6666666667,437,1031,435.33333333333,1035,438.33333333333,1071.6666666667,447.66666666667,1097.6666666667,394.66666666667,1078.6666666667,389.33333333333,1081,381,1058,360.66666666667,1048,368,1027.6666666667,399,1027.6666666667,420.66666666667"></polygon><polygon data-type="flat"  data-build="8" data-section="1" data-floor="1"  data-id="140" class="s3d-svg__build js-s3d-svg__build" points="1069.3333333333,470,1042.3333333333,533,1022.5333251953,527.90002441406,1014.8666585286,516.56669108073,998.19999186198,527.90002441406,989.33333333333,517,997.33333333333,506.33333333333,996.33333333333,481,1020.3333333333,441.66666666667,1031,435.33333333333,1056.6666666667,455.66666666667,1056.3333333333,466"></polygon><polygon data-type="flat"  data-build="8" data-section="1" data-floor="1"  data-id="141" class="s3d-svg__build js-s3d-svg__build" points="1110,404,1120,431,1134,429.66666666667,1136,412.66666666667,1145.6666666667,402.66666666667,1188.6666666667,398.33333333333,1185.6666666667,375.33333333333,1131.3333333333,382.66666666667,1123.6666666667,390.66666666667,1122.6666666667,404.33333333333"></polygon><polygon data-type="flat"  data-build="8" data-section="1" data-floor="1"  data-id="142" class="s3d-svg__build js-s3d-svg__build" points="1042.3333333333,533,1064,539.43334960938,1109.3333333333,545.76668294271,1140.6666666667,541,1155.6666666667,508,1159,489.33333333333,1143.6666666667,486,1143.6666666667,480.33333333333,1117,461.33333333333,1089.3333333333,465.66666666667,1084.3333333333,477,1068.3333333333,473.66666666667"></polygon><polygon data-type="flat"  data-build="8" data-section="1" data-floor="1"  data-id="143" class="s3d-svg__build js-s3d-svg__build" points="1120,431,1120,437.33333333333,1145.3333333333,467.66666666667,1175.6666666667,466.33333333333,1179.3333333333,451.66666666667,1200,449.66666666667,1203.6666666667,428.33333333333,1200.3333333333,397.33333333333,1145.6666666667,402.66666666667,1136,412.66666666667,1134,429.66666666667"></polygon></svg>