<svg viewBox="0 0 1920 1080" version="1.0" preserveAspectRatio="xMidYMid slice" id="floor--svg" xmlns="http://www.w3.org/2000/svg"><polygon data-type="flat"  data-build="8" data-section="1" data-floor="1"  data-id="95" class="s3d-svg__build js-s3d-svg__build" points="863.85003662109,75.524997711182,862.60003662109,70.524997711182,870.35003662109,53.024997711182,885.85003662109,53.024997711182,885.60003662109,49.524997711182,896.10003662109,43.524997711182,920.60003662109,36.024997711182,923.10003662109,41.024997711182,905.10003662109,47.774997711182,901.60003662109,55.024997711182,901.60003662109,73.524997711182,887.60003662109,81.774997711182,875.60003662109,78.024997711182"></polygon><polygon data-type="flat"  data-build="8" data-section="1" data-floor="1"  data-id="97" class="s3d-svg__build js-s3d-svg__build" points="887.60003662109,81.774997711182,890.60003662109,91.524997711182,909.60003662109,90.774997711182,908.35003662109,80.524997711182,911.60003662109,72.774997711182,919.85003662109,72.524997711182,943.60003662109,70.274997711182,944.35003662109,65.524997711182,962.60003662109,65.274997711182,959.85003662109,56.274997711182,955.10003662109,48.774997711182,947.85003662109,44.524997711182,939.60003662109,43.774997711182,934.85003662109,42.274997711182,931.60003662109,39.524997711182,923.10003662109,41.024997711182,905.10003662109,47.774997711182,901.60003662109,55.024997711182,901.60003662109,73.524997711182"></polygon><polygon data-type="flat"  data-build="8" data-section="1" data-floor="1"  data-id="103" class="s3d-svg__build js-s3d-svg__build" points="917.85003662109,90.275000095367,950.85003662109,87.525000095367,952.10003662109,100.52500009537,973.35003662109,99.525000095367,979.35003662109,113.52500009537,953.35003662109,116.02500009537,919.10003662109,118.27500009537,919.60003662109,127.27500009537,899.10003662109,130.27500009537,896.35003662109,115.77500009537,916.10003662109,114.77500009537"></polygon><polygon data-type="flat"  data-build="8" data-section="1" data-floor="1"  data-id="101" class="s3d-svg__build js-s3d-svg__build" points="912.60003662109,85.025000095367,915.60003662109,76.775000095367,946.60003662109,75.775000095367,950.85003662109,87.525000095367,970.35003662109,85.775000095367,973.35003662109,99.525000095367,952.10003662109,100.52500009537,950.85003662109,87.525000095367,917.85003662109,90.275000095367,916.10003662109,114.77500009537,896.35003662109,115.77500009537,892.60003662109,101.27500009537,912.60003662109,100.77500009537"></polygon><polygon data-type="flat"  data-build="8" data-section="1" data-floor="1"  data-id="99" class="s3d-svg__build js-s3d-svg__build" points="912.60003662109,100.77500009537,892.60003662109,101.27500009537,890.60003662109,91.524997711182,909.60003662109,90.774997711182,908.35003662109,80.524997711182,911.60003662109,72.774997711182,919.85003662109,72.524997711182,943.60003662109,70.274997711182,944.35003662109,65.524997711182,962.60003662109,65.274997711182,970.35003662109,85.775000095367,950.85003662109,87.525000095367,946.60003662109,75.775000095367,915.60003662109,76.775000095367,912.60003662109,85.025000095367"></polygon><polygon data-type="flat"  data-build="8" data-section="1" data-floor="1"  data-id="107" class="s3d-svg__build js-s3d-svg__build" points="903.60003662109,146.02499961853,923.60003662109,145.27499961853,923.85003662109,122.77499961853,959.60003662109,120.77499961853,962.35003662109,140.02499961853,987.35003662109,141.52499961853,988.35003662109,176.52499961853,955.35003662109,173.02499961853,953.35003662109,164.52499961853,930.10003662109,164.02499961853,923.60003662109,158.27499961853,913.10003662109,168.02499961853,905.85003662109,159.02499961853"></polygon><polygon data-type="flat"  data-build="8" data-section="1" data-floor="1"  data-id="105" class="s3d-svg__build js-s3d-svg__build" points="903.60003662109,146.02499961853,899.10003662109,130.27500009537,919.60003662109,127.27500009537,919.10003662109,118.27500009537,953.35003662109,116.02500009537,979.35003662109,113.52500009537,986.60003662109,127.52499961853,987.35003662109,141.52499961853,962.35003662109,140.02499961853,959.60003662109,120.77499961853,923.85003662109,122.77499961853,923.60003662109,145.27499961853"></polygon><polygon data-type="flat"  data-build="8" data-section="1" data-floor="1"  data-id="109" class="s3d-svg__build js-s3d-svg__build" points="921.10003662109,192.52500152588,922.85003662109,197.27500152588,922.10003662109,220.52500152588,929.33333333333,213.66666666667,940,228.66666666667,948.33333333333,221,955.66666666667,231,962.85003662109,231.02500152588,979,214.33333333333,979,193.66666666667,965.33333333333,190.66666666667,963.60003662109,181.77500152588,947.35003662109,167.27500152588,934.60003662109,176.77500152588"></polygon><polygon data-type="flat"  data-build="8" data-section="1" data-floor="1"  data-id="111" class="s3d-svg__build js-s3d-svg__build" points="934.60003662109,176.77500152588,930.10003662109,164.02499961853,923.60003662109,158.27499961853,893.10003662109,188.77500152588,894.85003662109,202.27500152588,884.66666666667,212.33333333333,891.66666666667,220,913,226.33333333333,922.10003662109,220.52500152588,922.85003662109,197.27500152588,921.10003662109,192.52500152588"></polygon><polygon data-type="flat"  data-build="8" data-section="1" data-floor="1"  data-id="113" class="s3d-svg__build js-s3d-svg__build" points="913.10003662109,168.02499961853,902.60003662109,156.77500152588,887.10003662109,165.02500152588,879.33333333333,173.33333333333,875.33333333333,172.66666666667,866,181.33333333333,867,185.66666666667,854,197.33333333333,867.66666666667,210.66666666667,875.66666666667,203,884.66666666667,212.33333333333,894.85003662109,202.27500152588,893.10003662109,188.77500152588"></polygon><polygon data-type="flat"  data-build="8" data-section="1" data-floor="1"  data-id="108" class="s3d-svg__build js-s3d-svg__build" points="719.35003662109,130.52499961853,768.60003662109,137.77499961853,779.60003662109,130.02499961853,766.35003662109,122.77499961853,763.60003662109,106.52499961853,761.35003662109,103.02499961853,745.60003662109,89.52499961853,738.60003662109,84.02499961853,729.60003662109,92.52499961853,724.85003662109,92.27499961853,723.60003662109,95.77499961853,720.10003662109,95.77499961853,718.10003662109,103.52499961853,692.69550796633,120.41407652106,719.60003662109,117.52499961853,719.35003662109,130.52499961853"></polygon><polygon data-type="flat"  data-build="8" data-section="1" data-floor="1"  data-id="106" class="s3d-svg__build js-s3d-svg__build" points="745.60003662109,89.52499961853,751.60003662109,77.52499961853,765.10003662109,84.77499961853,765.60003662109,80.02499961853,770.35003662109,79.52499961853,770.85003662109,85.52499961853,779.85003662109,90.77499961853,796.60003662109,103.77499999106,797.85003662109,114.52499999106,800.60003662109,118.02499999106,788.10003662109,128.52500152588,779.60003662109,130.02499961853,766.35003662109,122.77499961853,763.60003662109,106.52499961853,761.35003662109,103.02499961853"></polygon><polygon data-type="flat"  data-build="8" data-section="1" data-floor="1"  data-id="104" class="s3d-svg__build js-s3d-svg__build" points="788.10003662109,128.52500152588,799.9628684795,144.08252364977,810.60003662109,134.77500152588,817.95776479953,144.39834753189,823.35003662109,143.52499999106,822.60003662109,125.27499999106,841.60003662109,104.77499999106,815.60003662109,99.774999991059,807.60003662109,111.02499999106"></polygon><polygon data-type="flat"  data-build="8" data-section="1" data-floor="1"  data-id="102" class="s3d-svg__build js-s3d-svg__build" points="823.35003662109,143.52499999106,830.15201086508,143.79618694848,836.35003662109,138.77500152588,843.45818508228,149.3701662133,849.10003662109,148.52499999106,862.10003662109,154.27499999106,871.60003662109,157.52499999106,883.35003662109,153.02499999106,885.85003662109,149.52499999106,880.60003662109,118.77499999106,878.85003662109,110.02499999106,859.85003662109,106.52499999106,852.60003662109,97.524999991059,841.60003662109,104.77499999106,822.60003662109,125.27499999106"></polygon><polygon data-type="flat"  data-build="8" data-section="1" data-floor="1"  data-id="100" class="s3d-svg__build js-s3d-svg__build" points="822.00731151926,101.00716824071,822.85003662109,80.274997711182,839.10003662109,60.524997711182,845.85003662109,53.274997711182,870.35003662109,53.024997711182,862.60003662109,70.524997711182,863.85003662109,75.524997711182,873.60003662109,87.024999991059,878.85003662109,110.02499999106,859.85003662109,106.52499999106,852.60003662109,97.524999991059,841.60003662109,104.77499999106"></polygon><polygon data-type="flat"  data-build="8" data-section="1" data-floor="1"  data-id="98" class="s3d-svg__build js-s3d-svg__build" points="815.60003662109,99.774999991059,793.10003662109,91.524997711182,801.85003662109,77.024997711182,811.85003662109,64.274997711182,812.35003662109,57.524997711182,817.35003662109,58.274997711182,817.10003662109,60.524997711182,829.35003662109,52.024997711182,839.10003662109,60.524997711182,822.85003662109,80.274997711182,822.00731151926,101.00716824071"></polygon><polygon data-type="flat"  data-build="8" data-section="1" data-floor="1"  data-id="96" class="s3d-svg__build js-s3d-svg__build" points="755.92636002091,79.848395518429,755.85003662109,69.524997711182,765.60003662109,56.524997711182,784.60003662109,41.774997711182,797.10003662109,58.274997711182,812.35003662109,57.524997711182,817.10003662109,60.524997711182,811.85003662109,64.274997711182,801.85003662109,77.024997711182,793.10003662109,91.524997711182,779.85003662109,90.77499961853"></polygon><polygon data-type="flat"  data-build="8" data-section="1" data-floor="1"  data-id="94" class="s3d-svg__build js-s3d-svg__build" points="738.60003662109,84.02499961853,735.35003662109,64.274997711182,746.35003662109,51.524997711182,764.85003662109,37.524997711182,775.24679042902,49.036070412921,765.60003662109,56.524997711182,755.85003662109,69.524997711182,755.92636002091,79.848395518429,751.60003662109,77.52499961853,745.60003662109,89.52499961853"></polygon><polygon data-type="flat"  data-build="8" data-section="1" data-floor="1"  data-id="117" class="s3d-svg__build js-s3d-svg__build" points="1240,315.33333333333,1242.6666666667,291,1229,268.66666666667,1246.3333333333,251,1257.3333333333,262,1274.3333333333,291.66666666667,1270,313.33333333333"></polygon><polygon data-type="flat"  data-build="8" data-section="1" data-floor="1"  data-id="118" class="s3d-svg__build js-s3d-svg__build" points="1192.3333333333,212.66666666667,1203.3333333333,232.66666666667,1200.6666666667,255,1206.6666666667,263.33333333333,1216,254.66666666667,1224.6666666667,264,1234,263,1246.3333333333,251,1244.3333333333,249.33333333333,1245,240.33333333333,1231.3333333333,223,1227.3333333333,223,1219.6666666667,211.33333333333,1200.6666666667,201.66666666667"></polygon><polygon data-type="flat"  data-build="8" data-section="1" data-floor="1"  data-id="119" class="s3d-svg__build js-s3d-svg__build" points="1182,283,1189.6666666667,293.66666666667,1189,310.66666666667,1193.3333333333,320.33333333333,1216.6666666667,317.66666666667,1224,313.66666666667,1226.6666666667,316.66666666667,1240,315.33333333333,1242.6666666667,291,1229,268.66666666667,1216,254.66666666667,1194.6666666667,272.66666666667,1195,281.66666666667"></polygon><polygon data-type="flat"  data-build="8" data-section="1" data-floor="1"  data-id="120" class="s3d-svg__build js-s3d-svg__build" points="1192.3333333333,212.66666666667,1182.3333333333,199.66666666667,1160.6666666667,217.33333333333,1160.6666666667,229.33333333333,1152.3333333333,230.66666666667,1158.6666666667,246.66666666667,1158,259,1165.3333333333,270.33333333333,1202,267,1206.6666666667,263.33333333333,1200.6666666667,255,1203.3333333333,232.66666666667"></polygon><polygon data-type="flat"  data-build="8" data-section="1" data-floor="1"  data-id="121" class="s3d-svg__build js-s3d-svg__build" points="1182,283,1174.3333333333,284.33333333333,1165.3333333333,270.33333333333,1154.6666666667,259.66666666667,1139,275,1150.6666666667,303,1149.3333333333,323.66666666667,1193.3333333333,320.33333333333,1189,310.66666666667,1189.6666666667,293.66666666667"></polygon><polygon data-type="flat"  data-build="8" data-section="1" data-floor="1"  data-id="122" class="s3d-svg__build js-s3d-svg__build" points="1152.3333333333,230.66666666667,1142.6666666667,231.33333333333,1136.6666666667,219.66666666667,1121,206.33333333333,1108,219.33333333333,1116.3333333333,242.66666666667,1114,263,1115.6666666667,267.66666666667,1122.6666666667,259,1139,275,1154.6666666667,259.66666666667,1158,259,1158.6666666667,246.66666666667"></polygon><polygon data-type="flat"  data-build="8" data-section="1" data-floor="1"  data-id="123" class="s3d-svg__build js-s3d-svg__build" points="1122.6666666667,259,1105,281,1104.3333333333,289,1093.3333333333,290.66666666667,1099.6666666667,301.66666666667,1099.6666666667,314.33333333333,1105.6666666667,327.33333333333,1114,326.66666666667,1123.6666666667,320.66666666667,1134,331.66666666667,1149.3333333333,323.66666666667,1150.6666666667,303,1139,275"></polygon><polygon data-type="flat"  data-build="8" data-section="1" data-floor="1"  data-id="124" class="s3d-svg__build js-s3d-svg__build" points="1108,219.33333333333,1092.6666666667,206.33333333333,1074.6666666667,225.33333333333,1076,241.66666666667,1061,243.33333333333,1064.6666666667,254.33333333333,1064.6666666667,266.33333333333,1069.6666666667,280,1108,276,1115.6666666667,267.66666666667,1114,263,1116.3333333333,242.66666666667"></polygon><polygon data-type="flat"  data-build="8" data-section="1" data-floor="1"  data-id="125" class="s3d-svg__build js-s3d-svg__build" points="1093.3333333333,290.66666666667,1082.6666666667,291.66666666667,1077.3333333333,279.33333333333,1047.6666666667,282.33333333333,1054.6666666667,305.66666666667,1052.6666666667,331.66666666667,1057.3333333333,326.33333333333,1062.3333333333,331.33333333333,1105.6666666667,327.33333333333,1099.6666666667,314.33333333333,1099.6666666667,301.66666666667"></polygon><polygon data-type="flat"  data-build="8" data-section="1" data-floor="1"  data-id="126" class="s3d-svg__build js-s3d-svg__build" points="1061,243.33333333333,1050.6666666667,244.33333333333,1043,227.33333333333,1022,216,1011.3333333333,228.66666666667,1020,250,1020.3333333333,270,1022.6666666667,276,1029.6666666667,269.33333333333,1047.6666666667,282.33333333333,1069.6666666667,280,1064.6666666667,266.33333333333"></polygon><polygon data-type="flat"  data-build="8" data-section="1" data-floor="1"  data-id="127" class="s3d-svg__build js-s3d-svg__build" points="1047.6666666667,282.33333333333,1029.6666666667,269.33333333333,1012.6666666667,287,1012.3333333333,296.33333333333,997.66666666667,298,998.66666666667,313.66666666667,1007,333.33333333333,1016.3333333333,333.33333333333,1022.6666666667,327.33333333333,1029.6666666667,334,1052.6666666667,331.66666666667,1054.6666666667,305.66666666667"></polygon><polygon data-type="flat"  data-build="8" data-section="1" data-floor="1"  data-id="129" class="s3d-svg__build js-s3d-svg__build" points="943.33333333333,319.66666666667,947.66666666667,291,957,282.33333333333,981.33333333333,296.66666666667,981.33333333333,299.33333333333,997.66666666667,298,998.66666666667,313.66666666667,1007,333.33333333333,1004.6666666667,344.33333333333,989.66666666667,332.33333333333,977,346.66666666667,943,345.66666666667"></polygon><polygon data-type="flat"  data-build="8" data-section="1" data-floor="1"  data-id="128" class="s3d-svg__build js-s3d-svg__build" points="976.33333333333,290,1012.6666666667,287,1022.6666666667,276,1020.3333333333,270,1020,250,1011.3333333333,228.66666666667,1003,215.66666666667,980.66666666667,231.33333333333,981.33333333333,237,960,238.33333333333,974,272.33333333333,976.33333333333,281.66666666667"></polygon><polygon data-type="flat"  data-build="8" data-section="1" data-floor="1"  data-id="130" class="s3d-svg__build js-s3d-svg__build" points="919,269.33333333333,910.66666666667,281.33333333333,928.33333333333,285.66666666667,939,280.66666666667,947.66666666667,291,971.66666666667,266.66666666667,960,238.33333333333,948.33333333333,221,920.66666666667,250.33333333333"></polygon><polygon data-type="flat"  data-build="8" data-section="1" data-floor="1"  data-id="131" class="s3d-svg__build js-s3d-svg__build" points="939,280.66666666667,914,293.66666666667,912,302.33333333333,900,301.33333333333,895,314.33333333333,895.33333333333,327,895.33333333333,337.66666666667,903.66666666667,338.33333333333,908,333.66666666667,922,345.66666666667,943,345.66666666667,943.33333333333,319.66666666667,947.66666666667,291"></polygon><polygon data-type="flat"  data-build="8" data-section="1" data-floor="1"  data-id="132" class="s3d-svg__build js-s3d-svg__build" points="940,228.66666666667,929.33333333333,213.66666666667,905.66666666667,233,897.66666666667,242,887.33333333333,252,887.33333333333,262.33333333333,877.33333333333,273.33333333333,910.66666666667,281.33333333333,919,269.33333333333,920.66666666667,250.33333333333"></polygon><polygon data-type="flat"  data-build="8" data-section="1" data-floor="1"  data-id="133" class="s3d-svg__build js-s3d-svg__build" points="834.33333333333,249.66666666667,799,288,802.66666666667,307.33333333333,799.66666666667,310.33333333333,813,324,844.66666666667,331.66666666667,887.66666666667,285.33333333333,852.33333333333,278,852.33333333333,272.33333333333"></polygon><polygon data-type="flat"  data-build="8" data-section="1" data-floor="1"  data-id="134" class="s3d-svg__build js-s3d-svg__build" points="892.33333333333,240,891.66666666667,220,875.66666666667,203,843,235,843.66666666667,252,839.66666666667,255.66666666667,847.33333333333,265.66666666667,877.33333333333,273.33333333333,887.33333333333,262.33333333333,887.33333333333,252,897.66666666667,242"></polygon><polygon data-type="flat"  data-build="8" data-section="1" data-floor="1"  data-id="135" class="s3d-svg__build js-s3d-svg__build" points="822.66666666667,261.33333333333,808,242,793,257,790.66666666667,256.33333333333,740,304.33333333333,755.66666666667,309,769.33333333333,296.33333333333,787,315.66666666667,796.33333333333,307,799.66666666667,310.33333333333,802.66666666667,307.33333333333,799,288"></polygon><polygon data-type="flat"  data-build="8" data-section="1" data-floor="1"  data-id="136" class="s3d-svg__build js-s3d-svg__build" points="867.66666666667,210.66666666667,851,194.33333333333,830.66666666667,213.33333333333,820,224,817.33333333333,223,783.33333333333,250.33333333333,795.66666666667,253.66666666667,808,242,822.66666666667,261.33333333333,834.33333333333,249.66666666667,839.66666666667,255.66666666667,843.66666666667,252,843,235"></polygon><polygon data-type="flat"  data-build="8" data-section="1" data-floor="1"  data-id="137" class="s3d-svg__build js-s3d-svg__build" points="737.33333333333,225.66666666667,714,246.66666666667,703,262,705,279.33333333333,697.66666666667,287.66666666667,700.33333333333,291.33333333333,710.66666666667,282.33333333333,726.66666666667,301.33333333333,740,304.33333333333,784.66666666667,262.66666666667,755.66666666667,256.33333333333,754.33333333333,245.66666666667"></polygon><polygon data-type="flat"  data-build="8" data-section="1" data-floor="1"  data-id="138" class="s3d-svg__build js-s3d-svg__build" points="777.66666666667,179.33333333333,754.33333333333,200.66666666667,747.66666666667,211,749,228.33333333333,743.66666666667,232.66666666667,751,242.66666666667,783.33333333333,250.33333333333,811.66666666667,228.33333333333,800.33333333333,225.66666666667,801,220.33333333333,797.66666666667,219.33333333333,796.33333333333,196"></polygon><polygon data-type="flat"  data-build="8" data-section="1" data-floor="1"  data-id="139" class="s3d-svg__build js-s3d-svg__build" points="725.66666666667,236.66666666667,716.66666666667,224.33333333333,678,250.33333333333,679.66666666667,259,652,281.33333333333,671.33333333333,285.33333333333,685.66666666667,273,697.66666666667,287.66666666667,705,279.33333333333,703,262,714,246.66666666667"></polygon><polygon data-type="flat"  data-build="8" data-section="1" data-floor="1"  data-id="140" class="s3d-svg__build js-s3d-svg__build" points="770.33333333333,186.33333333333,761.66666666667,175.33333333333,736.33333333333,188.66666666667,715.33333333333,207.33333333333,715,222.33333333333,734,228.33333333333,737.33333333333,225.66666666667,743.66666666667,232.66666666667,749,228.33333333333,747.66666666667,211,754.33333333333,200.66666666667"></polygon><polygon data-type="flat"  data-build="8" data-section="1" data-floor="1"  data-id="141" class="s3d-svg__build js-s3d-svg__build" points="640.66666666667,217.66666666667,647.33333333333,237.33333333333,647,256,647.33333333333,270.33333333333,635.66666666667,272,622.66666666667,262,602.66666666667,274.33333333333,596.66666666667,248.66666666667,593.33333333333,221.33333333333"></polygon><polygon data-type="flat"  data-build="8" data-section="1" data-floor="1"  data-id="142" class="s3d-svg__build js-s3d-svg__build" points="733,192.33333333333,724,189.33333333333,723,177.33333333333,701.66666666667,161.66666666667,684.66666666667,170.66666666667,676.66666666667,176.33333333333,655.33333333333,170.33333333333,618.33333333333,203.33333333333,631.66666666667,205.33333333333,638.33333333333,204.33333333333,643.66666666667,213.66666666667,695.33333333333,229,705.66666666667,219,715,222.33333333333,715.33333333333,207.33333333333"></polygon><polygon data-type="flat"  data-build="8" data-section="1" data-floor="1"  data-id="143" class="s3d-svg__build js-s3d-svg__build" points="593.33333333333,221.33333333333,593.33333333333,209,631.66666666667,205.33333333333,638.33333333333,204.33333333333,643.66666666667,213.66666666667,647.33333333333,237.33333333333,640.66666666667,217.66666666667"></polygon><polygon data-type="flat"  data-build="8" data-section="1" data-floor="1"  data-id="114" class="s3d-svg__build js-s3d-svg__build" points="816.60003662109,154.77500152588,836.35003662109,138.77500152588,850.66666666667,158.66666666667,851,167.66666666667,862.33333333333,170.33333333333,861.33333333333,183.66666666667,837.66666666667,206.66666666667,804.85003662109,197.77500152588,809.60003662109,192.02500152588,808.60003662109,172.77500152588,806.60003662109,169.02500152588"></polygon><polygon data-type="flat"  data-build="8" data-section="1" data-floor="1"  data-id="115" class="s3d-svg__build js-s3d-svg__build" points="804.85003662109,197.77500152588,796.33333333333,196,781.85003662109,181.77500152588,780.10003662109,165.77500152588,792.60003662109,150.52500152588,810.60003662109,134.77500152588,823,149.66666666667,816.60003662109,154.77500152588,806.60003662109,169.02500152588,809.60003662109,192.02500152588"></polygon><polygon data-type="flat"  data-build="8" data-section="1" data-floor="1"  data-id="116" class="s3d-svg__build js-s3d-svg__build" points="799.9628684795,144.08252364977,788.10003662109,128.52500152588,769.66666666667,146,758.60003662109,156.27500152588,759.35003662109,163.02500152588,749.35003662109,171.77500152588,745.85003662109,179.77500152588,749.66666666667,181.33333333333,761.66666666667,175.33333333333,770.33333333333,186.33333333333,777.66666666667,179.33333333333,781.85003662109,181.77500152588,780.10003662109,165.77500152588,792.60003662109,150.52500152588"></polygon><polygon data-type="flat"  data-build="8" data-section="1" data-floor="1"  data-id="112" class="s3d-svg__build js-s3d-svg__build" points="719.35003662109,130.52499961853,721.4640791229,140.42761975859,724.10003662109,152.77499961853,725.33333333333,176.33333333333,723,177.33333333333,701.66666666667,161.66666666667,684.66666666667,170.66666666667,676.66666666667,176.33333333333,655.33333333333,170.33333333333,671.66666666667,154.33333333333,672,144.33333333333,680.85003662109,144.27499961853,681.35003662109,134.02499961853"></polygon><polygon data-type="flat"  data-build="8" data-section="1" data-floor="1"  data-id="110" class="s3d-svg__build js-s3d-svg__build" points="681.35003662109,134.02499961853,683,122,719.60003662109,117.52499961853,719.35003662109,130.52499961853"></polygon></svg>