<svg viewBox="0 0 1920 1080" version="1.0" preserveAspectRatio="xMidYMid slice" id="floor--svg" xmlns="http://www.w3.org/2000/svg"><polygon data-type="flat"  data-build="8" data-section="1" data-floor="1"  data-id="95" class="s3d-svg__build js-s3d-svg__build" points="1817.0667317708,589.30000813802,1852.5999755859,604.14999389648,1868.0999755859,586.14999389648,1840.4557277522,564.35530361198,1842.4000651042,559.63334147135,1829.0667317708,550.30000813802,1834.0667317708,538.63334147135,1829.4000651042,536.96667480469,1824.7333984375,547.63334147135,1783.7333984375,528.30000813802,1777.4000651042,537.96667480469,1823.7333984375,562.30000813802,1825.4000651042,576.30000813802"></polygon><polygon data-type="flat"  data-build="8" data-section="1" data-floor="1"  data-id="97" class="s3d-svg__build js-s3d-svg__build" points="1852.5999755859,604.14999389648,1833.5999755859,626.64999389648,1822.0999755859,622.64999389648,1744.5999755859,623.14999389648,1723.7333984375,579.63334147135,1709.5497330942,554.87820205045,1740.0999755859,554.14999389648,1749.4000651042,559.30000813802,1772.7333984375,535.30000813802,1777.4000651042,537.96667480469,1823.7333984375,562.30000813802,1825.4000651042,576.30000813802,1822.4000651042,587.63334147135"></polygon><polygon data-type="flat"  data-build="8" data-section="1" data-floor="1"  data-id="99" class="s3d-svg__build js-s3d-svg__build" points="1680.0667317708,598.96667480469,1695.0999755859,622.64999389648,1744.5999755859,623.14999389648,1723.7333984375,579.63334147135,1708.7333984375,558.63334147135,1710.4000651042,550.96667480469,1702.4000651042,550.30000813802,1695.7333984375,543.96667480469,1686.2433368587,537.21818657084,1680.7333984375,533.30000813802,1675.6259257568,536.8288074447,1662.4000651042,545.96667480469,1686.4000651042,581.63334147135"></polygon><polygon data-type="flat"  data-build="8" data-section="1" data-floor="1"  data-id="101" class="s3d-svg__build js-s3d-svg__build" points="1695.0999755859,622.64999389648,1645.5999755859,622.64999389648,1637.7333984375,605.30000813802,1644.0667317708,582.30000813802,1641.0667317708,578.30000813802,1644.4000651042,576.30000813802,1625.4000651042,548.96667480469,1629.0667317708,540.96667480469,1633.0667317708,542.63334147135,1650.7333984375,529.96667480469,1662.4000651042,545.96667480469,1686.4000651042,581.63334147135,1680.0667317708,598.96667480469"></polygon><polygon data-type="flat"  data-build="8" data-section="1" data-floor="1"  data-id="103" class="s3d-svg__build js-s3d-svg__build" points="1591.5999755859,621.05001831055,1645.5999755859,622.64999389648,1637.7333984375,605.30000813802,1644.0667317708,582.30000813802,1644.4000651042,576.30000813802,1625.4000651042,548.96667480469,1615.4000651042,532.96667480469,1584.4000651042,549.30000813802,1581.7333984375,559.30000813802,1559.143092593,559.25434104993,1570.6666666667,577.5"></polygon><polygon data-type="flat"  data-build="8" data-section="1" data-floor="1"  data-id="105" class="s3d-svg__build js-s3d-svg__build" points="1527.5999755859,621.05001831055,1591.5999755859,621.05001831055,1570.6666666667,577.5,1550.6666666667,545.83333333333,1519.3333333333,546.83333333333,1520.3333333333,540.5,1513.3333333333,540.16666666667,1512.3333333333,547.83333333333,1527.3333333333,575.16666666667,1522.6666666667,591.5"></polygon><polygon data-type="flat"  data-build="8" data-section="1" data-floor="1"  data-id="107" class="s3d-svg__build js-s3d-svg__build" points="1451.6666666667,557.5,1450.6666666667,561.16666666667,1441.0999755859,560.05001831055,1426.5999755859,583.05001831055,1434.0999755859,608.05001831055,1527.5999755859,621.05001831055,1522.6666666667,591.5,1527.3333333333,575.16666666667,1512.3333333333,547.83333333333,1498,528.83333333333,1472.3333333333,548.16666666667,1470,556.16666666667"></polygon><polygon data-type="flat"  data-build="8" data-section="1" data-floor="1"  data-id="113" class="s3d-svg__build js-s3d-svg__build" points="1413.5999755859,561.14999389648,1429.0999755859,534.14999389648,1403.4667154948,526.2333577474,1404.1333821615,512.56669108073,1398.4667154948,509.2333577474,1374.4667154948,501.2333577474,1376.8000488281,492.2333577474,1372.8000488281,491.90002441406,1369.4667154948,499.90002441406,1351.8000488281,494.56669108073,1346.4667154948,506.56669108073,1387.8000488281,518.90002441406,1390.1333821615,529.2333577474,1388.2979241619,552.62705466657"></polygon><polygon data-type="flat"  data-build="8" data-section="1" data-floor="1"  data-id="111" class="s3d-svg__build js-s3d-svg__build" points="1405.5999755859,572.14999389648,1413.5999755859,561.14999389648,1386.8000488281,555.2333577474,1388.8000488281,533.56669108073,1390.1333821615,529.2333577474,1387.8000488281,518.90002441406,1336.8000488281,503.90002441406,1322.0999755859,499.64999389648,1293.5999755859,539.64999389648,1317.2860163785,546.30270463463,1326.1333821615,525.56669108073,1336.8000488281,527.56669108073,1337.8000488281,522.2333577474,1346.1333821615,524.2333577474,1344.8000488281,529.2333577474,1368.8000488281,537.90002441406,1371.1333821615,532.56669108073,1378.1333821615,534.2333577474,1376.4667154948,540.90002441406,1377.2020225034,563.92614528758"></polygon><polygon data-type="flat"  data-build="8" data-section="1" data-floor="1"  data-id="109" class="s3d-svg__build js-s3d-svg__build" points="1405.5999755859,572.14999389648,1377.2020225034,563.92614528758,1379.4667154948,559.90002441406,1376.4667154948,540.90002441406,1378.1333821615,534.2333577474,1371.1333821615,532.56669108073,1368.8000488281,537.90002441406,1344.8000488281,529.2333577474,1346.1333821615,524.2333577474,1337.8000488281,522.2333577474,1336.8000488281,527.56669108073,1326.1333821615,525.56669108073,1317.2860163785,546.30270463463,1293.5999755859,539.64999389648,1266.5999755859,577.64999389648,1287.5999755859,590.14999389648,1339.8000488281,597.90002441406,1355.4667154948,602.56669108073,1385.5999755859,610.64999389648"></polygon><polygon data-type="flat"  data-build="8" data-section="1" data-floor="1"  data-id="114" class="s3d-svg__build js-s3d-svg__build" points="1411.7333170573,512.5,1438.5999755859,521.64999389648,1451.5999755859,498.14999389648,1427.7333170573,487.5,1428.0666503906,461.5,1380.399983724,446.83333333333,1370.399983724,474.83333333333,1341.5999755859,469.14999389648,1322.0999755859,499.64999389648,1346.4667154948,506.56669108073,1351.8000488281,494.56669108073,1398.4667154948,509.2333577474"></polygon><polygon data-type="flat"  data-build="8" data-section="1" data-floor="1"  data-id="115" class="s3d-svg__build js-s3d-svg__build" points="1451.5999755859,498.14999389648,1459.5999755859,482.65000915527,1433.0666503906,478.16666666667,1438.399983724,457.5,1436.399983724,445.5,1389.7333170573,430.83333333333,1386.2996999888,441.37786058896,1370.0999755859,436.65000915527,1341.5999755859,469.14999389648,1370.399983724,474.83333333333,1380.399983724,446.83333333333,1384.1477314717,447.98648648649,1428.0666503906,461.5,1427.7333170573,487.5"></polygon><polygon data-type="flat"  data-build="8" data-section="1" data-floor="1"  data-id="116" class="s3d-svg__build js-s3d-svg__build" points="1459.5999755859,482.65000915527,1471.5999755859,462.65000915527,1446.7437765012,455.84558281403,1450.0666503906,446.5,1448.399983724,430.83333333333,1402.399983724,418.83333333333,1400.3938346057,426.18525506811,1379.5999755859,420.65000915527,1370.0999755859,436.65000915527,1386.2996999888,441.37786058896,1389.7333170573,430.83333333333,1398.3836389988,433.55200594354,1436.399983724,445.5,1438.399983724,457.5,1433.0666503906,478.16666666667"></polygon><polygon data-type="flat"  data-build="8" data-section="1" data-floor="1"  data-id="102" class="s3d-svg__build js-s3d-svg__build" points="1562.0666503906,479.83333333333,1563.7333170573,487.5,1558.373740625,505.875690625,1590.5999755859,517.15000915527,1580.5999755859,536.15000915527,1503.3125789129,535.8755891016,1498,528.83333333333,1482.6615711856,540.38695503764,1466.5999755859,533.65000915527,1461.5999755859,527.15000915527,1467.5999755859,513.65000915527,1487.0999755859,482.65000915527,1504.2070334158,485.93644236732,1511.7333170573,464.83333333333"></polygon><polygon data-type="flat"  data-build="8" data-section="1" data-floor="1"  data-id="104" class="s3d-svg__build js-s3d-svg__build" points="1590.5999755859,517.15000915527,1601.5999755859,496.15000915527,1567.1950539087,487.86422415059,1574.7333170573,470.83333333333,1523.7333170573,456.16666666667,1517.3939416713,466.52027444346,1562.0666503906,479.83333333333,1556.7333170573,511.5"></polygon><polygon data-type="flat"  data-build="8" data-section="1" data-floor="1"  data-id="100" class="s3d-svg__build js-s3d-svg__build" points="1725.0999755859,518.65000915527,1717.5999755859,533.15000915527,1686.2433368587,537.21818657084,1680.7333984375,533.30000813802,1675.6259257568,536.8288074447,1660.4666341146,534.63334147135,1663.1333007812,525.96667480469,1637.4666341146,518.30000813802,1654.4666341146,468.30000813802,1707.1333007812,482.63334147135,1697.4666341146,511.30000813802"></polygon><polygon data-type="flat"  data-build="8" data-section="1" data-floor="1"  data-id="98" class="s3d-svg__build js-s3d-svg__build" points="1697.4666341146,511.30000813802,1725.0999755859,518.65000915527,1732.0999755859,490.15000915527,1710.9636036387,481.4694171162,1714.1333007812,470.30000813802,1662.1333007812,456.30000813802,1658.0493738304,469.27505755435,1707.1333007812,482.63334147135,1703.598320159,493.11638745452,1697.4666341146,511.30000813802"></polygon><polygon data-type="flat"  data-build="8" data-section="1" data-floor="1"  data-id="112" class="s3d-svg__build js-s3d-svg__build" points="1379.5999755859,420.65000915527,1386.9333496094,399.70001220703,1397.600016276,398.03334554036,1400.2666829427,388.03334554036,1420.2666829427,369.3666788737,1434.600016276,387.3666788737,1445.600016276,406.03334554036,1443.2666829427,409.3666788737,1439.5311086289,428.5197137433,1402.399983724,418.83333333333,1400.3938346057,426.18525506811"></polygon><polygon data-type="flat"  data-build="8" data-section="1" data-floor="1"  data-id="110" class="s3d-svg__build js-s3d-svg__build" points="1434.600016276,387.3666788737,1451.600016276,371.03334554036,1474.2666829427,399.3666788737,1490.600016276,403.70001220703,1495.9333496094,395.3666788737,1506.600016276,399.3666788737,1484.600016276,451.03334554036,1449.7042229133,443.0931817137,1446.2276978366,430.26665005836,1439.5311086289,428.5197137433,1443.2666829427,409.3666788737,1445.600016276,406.03334554036"></polygon><polygon data-type="flat"  data-build="8" data-section="1" data-floor="1"  data-id="108" class="s3d-svg__build js-s3d-svg__build" points="1497,452.63334147135,1512.3333333333,420.63334147135,1530,416.96667480469,1541.3333333333,416.96667480469,1546,412.30000813802,1562.6666666667,408.63334147135,1581.6666666667,406.63334147135,1587.6666666667,419.30000813802,1565,424.96667480469,1554.6666666667,432.30000813802,1554.6666666667,437.30000813802,1548.3333333333,456.63334147135,1523.7333170573,456.16666666667,1520.7110899361,461.10263469503"></polygon><polygon data-type="flat"  data-build="8" data-section="1" data-floor="1"  data-id="106" class="s3d-svg__build js-s3d-svg__build" points="1574.7333170573,470.83333333333,1604.6666666667,481.63334147135,1618.6666666667,460.96667480469,1610.6666666667,456.96667480469,1614.6666666667,440.96667480469,1602,415.63334147135,1587.6666666667,419.30000813802,1565,424.96667480469,1554.6666666667,432.30000813802,1554.6666666667,437.30000813802,1548.3333333333,456.63334147135,1523.7333170573,456.16666666667"></polygon><polygon data-type="flat"  data-build="8" data-section="1" data-floor="1"  data-id="94" class="s3d-svg__build js-s3d-svg__build" points="1676.5333658854,409.56667073568,1672.8666992188,420.23333740234,1668.2000325521,419.23333740234,1663.2000325521,431.56667073568,1648.5333658854,426.90000406901,1665.2000325521,401.56667073568,1676.5333658854,397.90000406901,1689.8666992188,397.90000406901,1711.5333658854,417.90000406901,1731.2000325521,423.23333740234,1727.5333658854,437.23333740234,1744.2000325521,457.23333740234,1737.5333658854,471.56667073568,1715.2000325521,465.56667073568,1727.5333658854,437.23333740234,1672.8666992188,420.23333740234"></polygon><polygon data-type="flat"  data-build="8" data-section="1" data-floor="1"  data-id="96" class="s3d-svg__build js-s3d-svg__build" points="1648.5333658854,426.90000406901,1621.8666992188,431.23333740234,1619.2000325521,438.90000406901,1657.8666992188,453.23333740234,1653.8666992188,464.23333740234,1659.2204253221,465.55450839753,1662.1333007812,456.30000813802,1714.1333007812,470.30000813802,1710.9636036387,481.4694171162,1732.0999755859,490.15000915527,1737.5333658854,471.56667073568,1715.2000325521,465.56667073568,1727.5333658854,437.23333740234,1673.7295238157,420.5016548075,1668.2000325521,419.23333740234,1663.2000325521,431.56667073568"></polygon><polygon data-type="flat"  data-build="8" data-section="1" data-floor="1"  data-id="117" class="s3d-svg__build js-s3d-svg__build" points="1170.3020833333,806,1179.96875,856.66666666667,1036.96875,861,1030.3020833333,794,1063.96875,794,1064.3020833333,773.66666666667,1068.6354166667,767.66666666667,1135.6354166667,766.66666666667,1136.3020833333,806.66666666667"></polygon><polygon data-type="flat"  data-build="8" data-section="1" data-floor="1"  data-id="118" class="s3d-svg__build js-s3d-svg__build" points="1195.96875,792.66666666667,1210.3020833333,853.66666666667,1356.3020833333,850.66666666667,1354.6354166667,835,1334.96875,788,1303.6354166667,790,1298.96875,759,1237.6354166667,761,1230.6354166667,767.33333333333,1227.96875,791.33333333333"></polygon><polygon data-type="flat"  data-build="8" data-section="1" data-floor="1"  data-id="119" class="s3d-svg__build js-s3d-svg__build" points="1030.3020833333,794,1026.3020833333,758,1061.96875,757,1063.96875,740.66666666667,1067.96875,739,1154.3020833333,737,1170.3020833333,806,1136.3020833333,806.66666666667,1135.6354166667,766.66666666667,1068.6354166667,767.66666666667,1064.3020833333,773.66666666667,1063.96875,794"></polygon><polygon data-type="flat"  data-build="8" data-section="1" data-floor="1"  data-id="120" class="s3d-svg__build js-s3d-svg__build" points="1216.6666666667,745.66666666667,1184.6666666667,745.66666666667,1195.96875,792.66666666667,1227.96875,791.33333333333,1230.6354166667,767.33333333333,1237.6354166667,761,1298.96875,759,1303.6354166667,790,1334.96875,788,1313.3333333333,732.33333333333,1290.6666666667,735,1287,732.33333333333,1251.3333333333,734,1248.3333333333,726.66666666667,1219,728.66666666667"></polygon><polygon data-type="flat"  data-build="8" data-section="1" data-floor="1"  data-id="121" class="s3d-svg__build js-s3d-svg__build" points="1026.3020833333,758,1023,708.66666666667,1050,708.33333333333,1050,681,1053,676.66666666667,1120.3333333333,676,1122,712,1150.3333333333,711.66666666667,1154.3020833333,737,1067.96875,739,1063.96875,740.66666666667,1061.96875,757"></polygon><polygon data-type="flat"  data-build="8" data-section="1" data-floor="1"  data-id="122" class="s3d-svg__build js-s3d-svg__build" points="1204,694,1172.6666666667,695,1184.6666666667,745.66666666667,1216.6666666667,745.66666666667,1219,728.66666666667,1248.3333333333,726.66666666667,1251.3333333333,734,1287,732.33333333333,1290.6666666667,735,1313.3333333333,732.33333333333,1302.3333333333,695.33333333333,1274.6666666667,696,1272.3333333333,671.66666666667,1213,673.66666666667,1206,677"></polygon><polygon data-type="flat"  data-build="8" data-section="1" data-floor="1"  data-id="123" class="s3d-svg__build js-s3d-svg__build" points="1023,708.66666666667,1017,661.66666666667,1048,663.33333333333,1048.6666666667,653.66666666667,1052.3333333333,647.66666666667,1116.6666666667,647.33333333333,1118.3333333333,652.66666666667,1137,652.66666666667,1150.3333333333,711.66666666667,1122,712,1120.3333333333,676,1053,676.66666666667,1050,681,1050,708.33333333333"></polygon><polygon data-type="flat"  data-build="8" data-section="1" data-floor="1"  data-id="124" class="s3d-svg__build js-s3d-svg__build" points="1196.6666666667,649,1161,649.33333333333,1172.6666666667,695,1204,694,1206,677,1213,673.66666666667,1272.3333333333,671.66666666667,1274.6666666667,696,1287,696,1280,647.33333333333,1268.3333333333,647.66666666667,1268,642.33333333333,1229.6666666667,643.33333333333,1226,636.66666666667,1196,638.33333333333"></polygon><polygon data-type="flat"  data-build="8" data-section="1" data-floor="1"  data-id="125" class="s3d-svg__build js-s3d-svg__build" points="1017,661.66666666667,1018.3333333333,625.66666666667,1046.6666666667,626.66666666667,1049,603.66666666667,1106,604.33333333333,1108.3333333333,619.33333333333,1130,619.33333333333,1137,652.66666666667,1118.3333333333,652.66666666667,1116.6666666667,647.33333333333,1052.3333333333,647.66666666667,1048.6666666667,653.66666666667,1048,663.33333333333"></polygon><polygon data-type="flat"  data-build="8" data-section="1" data-floor="1"  data-id="126" class="s3d-svg__build js-s3d-svg__build" points="1161,649.33333333333,1153.3333333333,614.33333333333,1186.3333333333,613.66666666667,1188.6666666667,595.33333333333,1193.3333333333,588.33333333333,1246.6666666667,587.33333333333,1249.6666666667,612.66666666667,1273.6666666667,614,1280,647.33333333333,1268.3333333333,647.66666666667,1268,642.33333333333,1229.6666666667,643.33333333333,1226,636.66666666667,1196,638.33333333333,1196.6666666667,649"></polygon><polygon data-type="flat"  data-build="8" data-section="1" data-floor="1"  data-id="127" class="s3d-svg__build js-s3d-svg__build" points="1016.3333333333,626.33333333333,1020,588,1046,588,1046.6666666667,579.33333333333,1050.3333333333,573,1106,573.66666666667,1106.3333333333,581.66666666667,1122,581,1130,619.33333333333,1108.3333333333,619.33333333333,1106,604.33333333333,1049,603.66666666667,1046.6666666667,626.66666666667"></polygon><polygon data-type="flat"  data-build="8" data-section="1" data-floor="1"  data-id="128" class="s3d-svg__build js-s3d-svg__build" points="1153.3333333333,614.33333333333,1145.3333333333,584,1183.3333333333,584.33333333333,1184,570.33333333333,1247.3333333333,572.33333333333,1248,575.66666666667,1261.3333333333,577.66666666667,1273.6666666667,614,1249.6666666667,612.66666666667,1246.6666666667,587.33333333333,1193.3333333333,588.33333333333,1188.6666666667,595.33333333333,1186.3333333333,613.66666666667"></polygon><polygon data-type="flat"  data-build="8" data-section="1" data-floor="1"  data-id="129" class="s3d-svg__build js-s3d-svg__build" points="1096,573.66666666667,1098.6666666667,558.33333333333,1091.3333333333,557,1092.3333333333,526.33333333333,1041,519.33333333333,1036,550,1035.6666666667,573.66666666667,1049,575.66666666667,1050.3333333333,573"></polygon><polygon data-type="flat"  data-build="8" data-section="1" data-floor="1"  data-id="130" class="s3d-svg__build js-s3d-svg__build" points="1236.6666666667,564,1270,572,1266.5999755859,577.64999389648,1261.3333333333,577.66666666667,1248,575.66666666667,1247.3333333333,572.33333333333,1184,570.33333333333,1183.3333333333,575.66666666667,1144,565.66666666667,1173,531,1178,532.33333333333,1185.3333333333,514.66666666667,1232.3333333333,531.33333333333,1238.6666666667,543.33333333333"></polygon><polygon data-type="flat"  data-build="8" data-section="1" data-floor="1"  data-id="131" class="s3d-svg__build js-s3d-svg__build" points="1041,519.33333333333,1043.3333333333,504.33333333333,1093,514,1099,514.33333333333,1098.3333333333,525.33333333333,1105,527,1098.6666666667,558.33333333333,1091.3333333333,557,1092.3333333333,526.33333333333"></polygon><polygon data-type="flat"  data-build="8" data-section="1" data-floor="1"  data-id="132" class="s3d-svg__build js-s3d-svg__build" points="1253,532,1290.6666666667,543.66666666667,1270,572,1236.6666666667,564,1238.6666666667,543.33333333333,1232.3333333333,531.33333333333,1194.6666666667,518,1200.3333333333,503,1248.3333333333,519.33333333333,1252.3333333333,526.33333333333"></polygon><polygon data-type="flat"  data-build="8" data-section="1" data-floor="1"  data-id="133" class="s3d-svg__build js-s3d-svg__build" points="1160,484,1183.6666666667,490.66666666667,1160.6666666667,516,1115.3333333333,502.33333333333,1115.3333333333,490.66666666667,1102,486.33333333333,1101,463,1112.3333333333,436.66666666667,1156.6666666667,451.66666666667,1162,462.33333333333"></polygon><polygon data-type="flat"  data-build="8" data-section="1" data-floor="1"  data-id="134" class="s3d-svg__build js-s3d-svg__build" points="1214,507.66666666667,1214,493,1224.3333333333,469,1270.3333333333,483.66666666667,1276,493,1273,514.66666666667,1305.3333333333,524,1290.6666666667,543.66666666667,1253,532,1252.3333333333,526.33333333333,1248.3333333333,519.33333333333"></polygon><polygon data-type="flat"  data-build="8" data-section="1" data-floor="1"  data-id="135" class="s3d-svg__build js-s3d-svg__build" points="1183.6666666667,490.66666666667,1207,464.66666666667,1183.6666666667,456.33333333333,1184.6666666667,444,1174.6666666667,439.66666666667,1172.6666666667,435.66666666667,1131,424.66666666667,1125,441,1156.6666666667,451.66666666667,1162,462.33333333333,1160,484"></polygon><polygon data-type="flat"  data-build="8" data-section="1" data-floor="1"  data-id="136" class="s3d-svg__build js-s3d-svg__build" points="1232.3333333333,472,1240.3333333333,451.33333333333,1286.6666666667,466,1291.6666666667,478.33333333333,1329.3333333333,487.66666666667,1322.0999755859,499.64999389648,1305.3333333333,524,1273,514.66666666667,1276,493,1270.3333333333,483.66666666667"></polygon><polygon data-type="flat"  data-build="8" data-section="1" data-floor="1"  data-id="137" class="s3d-svg__build js-s3d-svg__build" points="1209.6666666667,432,1230.6666666667,438,1207,464.66666666667,1183.6666666667,456.33333333333,1184.6666666667,444,1174.6666666667,439.66666666667,1172.6666666667,435.66666666667,1147.6666666667,428.66666666667,1154,422,1155,411.66666666667,1165.6666666667,386.66666666667,1207,399.66666666667,1212.6666666667,412"></polygon><polygon data-type="flat"  data-build="8" data-section="1" data-floor="1"  data-id="138" class="s3d-svg__build js-s3d-svg__build" points="1326,452,1351,458.66666666667,1341.5999755859,469.14999389648,1329.3333333333,487.66666666667,1291.6666666667,478.33333333333,1286.6666666667,466,1244.6666666667,452.66666666667,1259.6666666667,432.66666666667,1268,434.33333333333,1278.3333333333,413.33333333333,1326.3333333333,428,1328.6666666667,439"></polygon><polygon data-type="flat"  data-build="8" data-section="1" data-floor="1"  data-id="139" class="s3d-svg__build js-s3d-svg__build" points="1230.6666666667,438,1249,418,1225,410.66666666667,1226,397,1219.3333333333,392,1180.3333333333,381.66666666667,1177.3333333333,390.33333333333,1207,399.66666666667,1212.6666666667,412,1209.6666666667,432"></polygon><polygon data-type="flat"  data-build="8" data-section="1" data-floor="1"  data-id="140" class="s3d-svg__build js-s3d-svg__build" points="1347,431,1370.0999755859,436.65000915527,1351,458.66666666667,1326,452,1328.6666666667,439,1326.3333333333,428,1284.3333333333,415,1287.3333333333,405.33333333333,1293,406.66666666667,1299.3333333333,400.66666666667,1349.3333333333,416"></polygon><polygon data-type="flat"  data-build="8" data-section="1" data-floor="1"  data-id="141" class="s3d-svg__build js-s3d-svg__build" points="1219.3333333333,392,1233.6666666667,392,1235.3333333333,367,1228.3333333333,340.33333333333,1213.6666666667,332,1195.3333333333,348,1194,367.66666666667,1184.6666666667,370,1184.6666666667,382.66666666667"></polygon><polygon data-type="flat"  data-build="8" data-section="1" data-floor="1"  data-id="142" class="s3d-svg__build js-s3d-svg__build" points="1305.3333333333,403.33333333333,1314,391.66666666667,1321.6666666667,373.66666666667,1360.3333333333,384.66666666667,1369,389.66666666667,1389,395,1386.9333496094,399.70001220703,1379.5999755859,420.65000915527,1370.0999755859,436.65000915527,1347,431,1349.3333333333,416"></polygon><polygon data-type="flat"  data-build="8" data-section="1" data-floor="1"  data-id="143" class="s3d-svg__build js-s3d-svg__build" points="1233.6666666667,392,1278,390.66666666667,1278.6666666667,376.66666666667,1274.3333333333,367.33333333333,1268.3333333333,359,1262,359.33333333333,1254.6666666667,342,1242,330.66666666667,1228.3333333333,340.33333333333,1235.3333333333,367"></polygon></svg>