<svg viewBox="0 0 1920 1080" version="1.0" preserveAspectRatio="xMidYMid slice" id="floor--svg" xmlns="http://www.w3.org/2000/svg"><polygon data-type="flat"  data-build="1" data-section="1" data-floor="1"  data-id="88" class="s3d-svg__build js-s3d-svg__build" points="715,616.5,960,613.5,960.5,631,974,630.5,983.5,809,679.5,857,641,829.5,673,688,701,685.5"></polygon><polygon data-type="flat"  data-build="1" data-section="1" data-floor="1"  data-id="89" class="s3d-svg__build js-s3d-svg__build" points="922.5,407,923,570.5,915.5,582,908.5,588,896,593,733,594.5,735.5,572,730,534,708.5,533.5,734.5,409.5,756,409.5,756.5,401,871.5,398.5,871.5,408.5"></polygon><polygon data-type="flat"  data-build="1" data-section="1" data-floor="1"  data-id="91" class="s3d-svg__build js-s3d-svg__build" points="923.5,154.5,887,156.5,887.5,146.5,805.5,148,804,157.5,790,157.5,763.5,274,924,272.5"></polygon><polygon data-type="flat"  data-build="1" data-section="1" data-floor="1"  data-id="92" class="s3d-svg__build js-s3d-svg__build" points="923.5,154.5,925,79.5,810.5,81,790,157.5,804,157.5,805.5,148,887.5,146.5,887,156.5"></polygon><polygon data-type="flat"  data-build="1" data-section="1" data-floor="1"  data-id="90" class="s3d-svg__build js-s3d-svg__build" points="734.5,409.5,763.5,274,924,272.5,922.5,407,871.5,408.5,871.5,398.5,756.5,401,756,409.5"></polygon><polygon data-type="flat"  data-build="1" data-section="1" data-floor="1"  data-id="82" class="s3d-svg__build js-s3d-svg__build" points="974,630.5,981,630,979,610.5,1241.5,577.5,1294,673,1292,679,1317.5,760,983.5,809"></polygon><polygon data-type="flat"  data-build="1" data-section="1" data-floor="1"  data-id="83" class="s3d-svg__build js-s3d-svg__build" points="1153.5,393.5,1193,542,1187,557,1176,564.5,1020.5,586,1002,584,994.5,580.5,986,574.5,978.5,565,968.5,395,1018.5,394.5,1019.5,385.5,1133.5,385.5,1135,392.5"></polygon><polygon data-type="flat"  data-build="1" data-section="1" data-floor="1"  data-id="84" class="s3d-svg__build js-s3d-svg__build" points="968.5,395,1020.5,394.5,1019.5,385.5,1133.5,385.5,1135,392.5,1163,392.5,1133,267.5,1105,268.5,1101,253,1006.5,253.5,1008,269.5,963,270"></polygon><polygon data-type="flat"  data-build="1" data-section="1" data-floor="1"  data-id="86" class="s3d-svg__build js-s3d-svg__build" points="1134,130,998.5,132,1000,140.5,994.5,140.5,996,157.5,986,158.5,976.5,160.5,967.5,165,962,172.5,959.5,187,1141,185,1137,177.5,1138,163.5,1144.5,163"></polygon><polygon data-type="flat"  data-build="1" data-section="1" data-floor="1"  data-id="87" class="s3d-svg__build js-s3d-svg__build" points="925,79.5,947,78.5,947,74,1086.5,72,1094.5,97,1094.5,99.5,1088.5,99,1090.5,130,998.5,132,1000,140.5,994.5,140.5,995,151,924,151"></polygon><polygon data-type="flat"  data-build="1" data-section="1" data-floor="1"  data-id="85" class="s3d-svg__build js-s3d-svg__build" points="959.5,187,1164,185.5,1187.5,223,1165.5,223.5,1178.5,266,1105,268.5,1101,253,1006.5,253.5,1008,269.5,963,270"></polygon><polygon data-type="flat"  data-build="1" data-section="1" data-floor="1"  data-id="81" class="s3d-svg__build js-s3d-svg__build" points="1242,527,1318,522,1315,512,1315.5,509,1445,507.5,1554,716.5,1394.5,750,1317.5,760,1292,679,1294,673"></polygon><polygon data-type="flat"  data-build="1" data-section="1" data-floor="1"  data-id="80" class="s3d-svg__build js-s3d-svg__build" points="1242,527,1190.5,375.5,1262.5,375,1258,364.5,1367.5,364,1445,507.5,1315.5,509,1315,512,1318,522"></polygon><polygon data-type="flat"  data-build="1" data-section="1" data-floor="1"  data-id="79" class="s3d-svg__build js-s3d-svg__build" points="1190.5,375.5,1183,351,1154.5,352.5,1133,267.5,1218,266,1211.5,247.5,1306.5,247,1367.5,364,1258,364.5,1262.5,375"></polygon></svg>